<svg id="Group_24799" data-name="Group 24799" xmlns="http://www.w3.org/2000/svg" width="92" height="20" viewBox="0 0 92 20">
  <g id="Group_331" data-name="Group 331" transform="translate(0 0)">
    <g id="Group_329" data-name="Group 329">
      <g id="Group_328" data-name="Group 328">
        <g id="Group_327" data-name="Group 327" transform="translate(0 0.002)">
          <path id="Path_30122" data-name="Path 30122" d="M282.778,447.23h-3.083a.65.65,0,0,0-.657.641v7.676a32.983,32.983,0,0,1-5.859.5c-.607,0-1.239-.018-1.866-.049a28.563,28.563,0,0,1-3.994-.447v-7.676a.65.65,0,0,0-.657-.641h-3.083a.65.65,0,0,0-.657.641v18.708a.65.65,0,0,0,.657.643h3.083a.65.65,0,0,0,.657-.643v-6.648a35.455,35.455,0,0,0,3.994.375c.625.029,1.257.042,1.866.042a39.969,39.969,0,0,0,5.859-.418v6.648a.65.65,0,0,0,.657.643h3.083a.65.65,0,0,0,.657-.643V447.871A.65.65,0,0,0,282.778,447.23Z" transform="translate(-262.922 -447.23)" fill="#0342fe"/>
        </g>
        <path id="Path_30123" data-name="Path 30123" d="M650.923,447.22H649.11c-.046,0-.089,0-.135,0h-1.136a.65.65,0,0,0-.333.093c-.01.006-.022.01-.032.016a.842.842,0,0,0-.1.08.678.678,0,0,0-.141.2s0,0,0,0a.639.639,0,0,0-.029.1.614.614,0,0,0-.021.152v14.38c-.093.026-.216.052-.315.076l-.092.022-.19.045a24.225,24.225,0,0,1-4.839.512h-.008l-.292,0H641.2l-.292,0H640.9a24.225,24.225,0,0,1-4.839-.512l-.19-.045-.093-.022c-.1-.025-.221-.05-.315-.076v-14.38a.653.653,0,0,0-.02-.152.694.694,0,0,0-.03-.1s0,0,0,0a.666.666,0,0,0-.141-.2.8.8,0,0,0-.1-.08c-.011-.007-.022-.01-.032-.016a.65.65,0,0,0-.333-.093h-1.136c-.046,0-.089,0-.135,0h-1.813a.65.65,0,0,0-.657.641v16.312a.962.962,0,0,0,.053.309c.19.567.9,1.1,2.055,1.543.221.085.456.167.709.245.068.023.141.045.217.067l.076.021c.136.039.276.077.42.114l.081.02q.22.055.45.107l.066.015c.087.02.174.038.262.056.122.025.249.048.375.071l.063.012a30.247,30.247,0,0,0,5.407.459h.046a30.25,30.25,0,0,0,5.407-.459l.063-.012c.125-.023.252-.046.374-.071.089-.018.175-.036.263-.056l.065-.015c.154-.034.3-.07.451-.107l.08-.02c.144-.037.284-.075.42-.114l.076-.021c.075-.022.148-.044.217-.067q.378-.117.709-.245c1.156-.444,1.866-.976,2.055-1.543a.968.968,0,0,0,.052-.309V447.861A.649.649,0,0,0,650.923,447.22Z" transform="translate(-559.58 -447.218)" fill="#0342fe"/>
        <path id="Path_30124" data-name="Path 30124" d="M405.736,447.22h-1.813c-.046,0-.089,0-.135,0h-1.136a.65.65,0,0,0-.333.093.352.352,0,0,0-.032.016.808.808,0,0,0-.1.08.671.671,0,0,0-.141.2s0,0,0,0a.61.61,0,0,0-.03.1.62.62,0,0,0-.021.152v14.38c-.093.026-.216.052-.315.076l-.093.022-.19.045a24.227,24.227,0,0,1-4.84.512h-.008l-.292,0h-.247l-.292,0h-.009a24.222,24.222,0,0,1-4.839-.512l-.19-.045-.092-.022c-.1-.025-.221-.05-.315-.076v-14.38a.642.642,0,0,0-.02-.152.718.718,0,0,0-.03-.1s0,0,0,0a.672.672,0,0,0-.141-.2.812.812,0,0,0-.1-.08c-.011-.007-.022-.01-.032-.016a.649.649,0,0,0-.333-.093h-1.136c-.046,0-.089,0-.135,0h-1.813a.649.649,0,0,0-.657.641v16.312a.969.969,0,0,0,.052.309c.19.567.9,1.1,2.055,1.543.221.085.457.167.709.245.068.023.141.045.217.067l.076.021c.136.039.276.077.42.114l.081.02q.22.055.45.107l.066.015c.087.02.173.038.262.056.122.025.249.048.374.071l.063.012a30.251,30.251,0,0,0,5.407.459h.046a30.25,30.25,0,0,0,5.407-.459l.063-.012c.126-.023.252-.046.375-.071.089-.018.175-.036.263-.056l.065-.015c.154-.034.3-.07.451-.107l.08-.02c.144-.037.284-.075.42-.114l.076-.021c.075-.022.148-.044.217-.067.252-.078.488-.16.709-.245,1.157-.444,1.866-.976,2.055-1.543a.962.962,0,0,0,.053-.309V447.861A.65.65,0,0,0,405.736,447.22Z" transform="translate(-362.005 -447.218)" fill="#0342fe"/>
      </g>
    </g>
    <g id="Group_330" data-name="Group 330" transform="translate(47.616 0.002)">
      <path id="Path_30125" data-name="Path 30125" d="M529.153,456.571c0-.11-.008-.219-.016-.329,0-.062-.008-.122-.014-.183-.006-.1-.016-.205-.025-.305,0-.061-.014-.118-.018-.177-.011-.1-.023-.208-.037-.31-.006-.051-.013-.1-.022-.154-.014-.111-.033-.223-.05-.332,0-.041-.014-.083-.02-.123-.022-.121-.044-.242-.067-.362-.007-.027-.011-.056-.018-.082-.028-.134-.057-.268-.087-.4a.236.236,0,0,1-.008-.037c-.044-.174-.088-.349-.138-.518a12.541,12.541,0,0,0-.48-1.375l-3.94,3.858-7.321,7.171a.765.765,0,0,1-1.053.005l-2.784-2.725-2.949-2.89a.723.723,0,0,1,0-1.035l1.839-1.8a.75.75,0,0,1,.528-.215.469.469,0,0,1,.079,0,.726.726,0,0,1,.451.212l1.185,1.157,2.176,2.131,9.45-9.255a5.7,5.7,0,0,0-1.081-.743.166.166,0,0,0-.034-.022c-.032-.018-.066-.031-.1-.047a.206.206,0,0,0-.032-.016c-.082-.04-.167-.076-.251-.11l-.007,0-.052-.022c-.094-.036-.187-.069-.28-.1l-.018-.007c-.1-.031-.2-.058-.3-.083-.024-.006-.051-.011-.075-.015-.075-.018-.149-.031-.224-.045-.034,0-.068-.011-.1-.016-.068-.009-.139-.018-.211-.024l-.093-.009c-.1-.006-.2-.011-.3-.011H508.779a.654.654,0,0,0-.655.576v18.837a.66.66,0,0,0,.655.585h13.873c.1,0,.2-.007.3-.013l.093-.007c.073-.009.143-.016.211-.027.034,0,.068-.009.1-.015.075-.011.148-.027.224-.043l.075-.016c.1-.024.2-.051.3-.083l.018-.006c.093-.029.187-.062.28-.1a.43.43,0,0,1,.052-.022s.007,0,.01,0c.085-.033.167-.069.249-.109l.032-.013.1-.047a.286.286,0,0,0,.034-.022,7,7,0,0,0,2.648-2.6c.014-.015.028-.031.039-.047a11.531,11.531,0,0,0,1.213-2.847c.05-.172.1-.344.138-.52a.2.2,0,0,1,.008-.038c.03-.132.06-.266.087-.4.006-.027.011-.056.018-.085.023-.118.045-.239.067-.36.006-.042.016-.082.02-.125.018-.11.036-.218.05-.33.009-.052.016-.1.022-.154.014-.1.026-.208.037-.311,0-.06.014-.118.018-.177.009-.1.018-.2.025-.305.005-.061.012-.12.014-.184.008-.109.011-.218.016-.329,0-.054.007-.108.009-.161.005-.163.007-.328.007-.5s0-.331-.007-.494C529.161,456.678,529.158,456.627,529.153,456.571Z" transform="translate(-508.124 -447.23)" fill="#0342fe"/>
    </g>
  </g>
</svg>
