<svg id="Group_23982" data-name="Group 23982" xmlns="http://www.w3.org/2000/svg" width="165" height="36" viewBox="0 0 165 36">
  <g id="Group_331" data-name="Group 331" transform="translate(0 0)">
    <g id="Group_329" data-name="Group 329">
      <g id="Group_328" data-name="Group 328">
        <g id="Group_327" data-name="Group 327" transform="translate(0 0.004)">
          <path id="Path_30122" data-name="Path 30122" d="M298.649,447.23H293.1a1.169,1.169,0,0,0-1.182,1.153V462.2a59.327,59.327,0,0,1-10.542.892c-1.092,0-2.229-.033-3.357-.088a51.372,51.372,0,0,1-7.186-.8V448.383a1.169,1.169,0,0,0-1.182-1.153H264.1a1.169,1.169,0,0,0-1.182,1.153v33.675a1.17,1.17,0,0,0,1.182,1.158h5.548a1.17,1.17,0,0,0,1.182-1.158V470.091a63.728,63.728,0,0,0,7.186.675c1.124.052,2.261.076,3.357.076a71.882,71.882,0,0,0,10.542-.752v11.967a1.17,1.17,0,0,0,1.182,1.158h5.548a1.17,1.17,0,0,0,1.182-1.158V448.383A1.169,1.169,0,0,0,298.649,447.23Z" transform="translate(-262.922 -447.23)" fill="#3272dd"/>
        </g>
        <path id="Path_30123" data-name="Path 30123" d="M666.793,447.222h-3.262c-.083,0-.161,0-.242,0h-2.044a1.17,1.17,0,0,0-.6.168c-.019.01-.039.017-.057.029a1.515,1.515,0,0,0-.177.144,1.22,1.22,0,0,0-.254.366s0,0,0,0a1.144,1.144,0,0,0-.053.176,1.1,1.1,0,0,0-.038.274v25.885c-.168.047-.389.093-.566.137l-.166.04c-.113.028-.226.055-.342.082a43.572,43.572,0,0,1-8.708.921h-.014c-.175,0-.35,0-.526,0l-.222,0-.222,0c-.176,0-.351,0-.524,0h-.015a43.572,43.572,0,0,1-8.708-.921c-.116-.027-.228-.054-.341-.082l-.167-.04c-.176-.045-.4-.091-.566-.137V448.379a1.174,1.174,0,0,0-.037-.274,1.245,1.245,0,0,0-.055-.176s0,0,0,0a1.2,1.2,0,0,0-.254-.366,1.452,1.452,0,0,0-.176-.144c-.019-.012-.039-.019-.058-.029a1.17,1.17,0,0,0-.6-.168h-2.043c-.083,0-.161,0-.242,0h-3.263a1.169,1.169,0,0,0-1.182,1.153v29.362a1.732,1.732,0,0,0,.095.556c.341,1.02,1.618,1.978,3.7,2.777.4.153.821.3,1.276.442.122.041.254.081.39.121l.136.037c.245.071.5.139.756.206l.146.036q.4.1.81.192l.118.028c.156.036.312.068.472.1.22.046.448.086.674.128l.113.022a54.4,54.4,0,0,0,9.729.826h.082a54.4,54.4,0,0,0,9.729-.826l.113-.022c.225-.042.454-.082.674-.128.159-.032.316-.064.473-.1l.117-.028c.277-.062.546-.126.811-.192l.144-.036c.259-.067.512-.135.757-.206l.137-.037c.135-.04.266-.08.39-.121q.681-.211,1.276-.442c2.081-.8,3.357-1.757,3.7-2.777a1.743,1.743,0,0,0,.094-.556V448.375A1.169,1.169,0,0,0,666.793,447.222Z" transform="translate(-502.974 -447.218)" fill="#3272dd"/>
        <path id="Path_30124" data-name="Path 30124" d="M421.606,447.222h-3.262c-.083,0-.161,0-.242,0h-2.045a1.169,1.169,0,0,0-.6.168c-.019.01-.039.017-.057.029a1.465,1.465,0,0,0-.177.144,1.208,1.208,0,0,0-.254.366s0,0,0,0a1.1,1.1,0,0,0-.053.176,1.113,1.113,0,0,0-.038.274v25.885c-.168.047-.389.093-.566.137l-.167.04c-.113.028-.226.055-.341.082a43.577,43.577,0,0,1-8.708.921h-.014c-.175,0-.35,0-.526,0l-.222,0-.222,0c-.176,0-.351,0-.525,0h-.015a43.568,43.568,0,0,1-8.707-.921c-.116-.027-.228-.054-.342-.082l-.166-.04c-.176-.045-.4-.091-.566-.137V448.379a1.156,1.156,0,0,0-.037-.274,1.289,1.289,0,0,0-.054-.176s0,0,0,0a1.209,1.209,0,0,0-.254-.366,1.474,1.474,0,0,0-.176-.144c-.019-.012-.039-.019-.058-.029a1.167,1.167,0,0,0-.6-.168h-2.043c-.083,0-.161,0-.242,0h-3.263a1.169,1.169,0,0,0-1.182,1.153v29.362a1.743,1.743,0,0,0,.094.556c.341,1.02,1.618,1.978,3.7,2.777.4.153.822.3,1.276.442.123.041.254.081.39.121.044.013.092.024.136.037.244.071.5.139.756.206l.146.036q.4.1.809.192l.118.028c.156.036.312.068.471.1.22.046.448.086.674.128l.113.022a54.4,54.4,0,0,0,9.729.826h.083a54.4,54.4,0,0,0,9.729-.826l.113-.022c.226-.042.454-.082.674-.128.16-.032.315-.064.472-.1l.117-.028c.277-.062.546-.126.811-.192l.144-.036c.259-.067.512-.135.757-.206l.137-.037c.135-.04.266-.08.39-.121.454-.14.878-.288,1.275-.442,2.081-.8,3.358-1.757,3.7-2.777a1.732,1.732,0,0,0,.095-.556V448.375A1.169,1.169,0,0,0,421.606,447.222Z" transform="translate(-343.099 -447.218)" fill="#3272dd"/>
      </g>
    </g>
    <g id="Group_330" data-name="Group 330" transform="translate(85.316 0.004)">
      <path id="Path_30125" data-name="Path 30125" d="M545.962,464.044c-.008-.2-.015-.394-.029-.592,0-.112-.015-.22-.025-.329-.011-.185-.028-.369-.045-.55-.008-.109-.025-.213-.033-.319-.02-.185-.042-.374-.066-.559-.011-.092-.023-.184-.039-.278-.026-.2-.059-.4-.091-.6-.008-.073-.025-.15-.036-.221-.039-.218-.08-.435-.121-.652-.012-.048-.021-.1-.032-.148-.05-.242-.1-.483-.157-.72a.407.407,0,0,1-.014-.068c-.079-.314-.157-.627-.248-.933a22.561,22.561,0,0,0-.864-2.476l-7.089,6.944L523.9,475.456a1.377,1.377,0,0,1-1.9.009L517,470.559l-5.306-5.2a1.3,1.3,0,0,1,0-1.863L515,460.255a1.348,1.348,0,0,1,.95-.387.845.845,0,0,1,.142.009,1.307,1.307,0,0,1,.812.382l2.132,2.082,3.915,3.836,17-16.659a10.269,10.269,0,0,0-1.945-1.338.3.3,0,0,0-.062-.04c-.057-.033-.119-.056-.176-.084a.377.377,0,0,0-.057-.028c-.147-.073-.3-.136-.452-.2,0,0-.007,0-.013,0-.032-.012-.065-.028-.093-.04-.169-.065-.337-.124-.5-.177-.012,0-.02-.008-.033-.012-.181-.057-.361-.1-.537-.149-.044-.012-.091-.02-.135-.028-.136-.032-.268-.056-.4-.08-.062-.009-.123-.02-.184-.028-.123-.016-.249-.032-.381-.044-.055,0-.111-.012-.168-.017-.182-.012-.366-.02-.546-.02H509.3a1.177,1.177,0,0,0-1.178,1.037v33.906a1.187,1.187,0,0,0,1.178,1.052h24.962c.18,0,.364-.012.546-.023l.168-.013c.131-.015.258-.029.381-.048.061-.008.123-.016.184-.028.135-.02.267-.049.4-.077.044-.009.091-.02.135-.028.177-.044.357-.093.537-.149l.033-.012c.168-.052.336-.112.5-.177a.762.762,0,0,1,.093-.04c.006,0,.013,0,.018-.009.152-.059.3-.123.448-.2l.057-.024.176-.085a.511.511,0,0,0,.062-.04,12.588,12.588,0,0,0,4.764-4.687c.025-.028.05-.056.071-.084a20.756,20.756,0,0,0,2.182-5.125c.091-.31.174-.619.248-.936a.35.35,0,0,1,.014-.069c.054-.237.108-.478.157-.719.011-.048.02-.1.032-.153.041-.213.081-.43.121-.648.012-.076.028-.148.036-.225.032-.2.065-.393.091-.594.016-.094.028-.185.039-.278.025-.185.046-.374.066-.56.008-.109.025-.212.033-.318.017-.184.033-.365.045-.55.01-.109.022-.217.025-.331.014-.2.02-.392.029-.593.008-.1.013-.194.016-.289.01-.293.013-.591.013-.892s0-.6-.013-.889C545.975,464.237,545.97,464.144,545.962,464.044Z" transform="translate(-508.124 -447.23)" fill="#3272dd"/>
    </g>
  </g>
</svg>
