<svg xmlns="http://www.w3.org/2000/svg" width="901.428" height="1121.53" viewBox="0 0 901.428 1121.53">
  <g id="Layer_2" data-name="Layer 2" transform="translate(148.67 -328.76)">
    <g id="Design_Layer" data-name="Design Layer" transform="translate(-263 -3)">
      <g id="Text">
        <path id="Path_42928" data-name="Path 42928" d="M898.86,1288.5v159.79a4.93,4.93,0,0,1-4.85,5H770.32a4.94,4.94,0,0,1-4.86-5V1288.5a5,5,0,0,1,1.43-3.54,4.75,4.75,0,0,1,7.59,1c11.51,20.29,32.87,33.93,57.35,33.93s45.83-13.64,57.34-33.93a4.8,4.8,0,0,1,4.17-2.45H894a4.94,4.94,0,0,1,4.86,4.99Z" fill="#d7dcf4"/>
        <path id="Path_42929" data-name="Path 42929" d="M528.36,1441.54a8.84,8.84,0,0,0-4.94-7.76c-41-21.43-68.55-61.23-68.55-106.82s27.56-85.38,68.55-106.82a8.83,8.83,0,0,0,4.94-7.76h0c0-5-4.52-9-10.1-9H124.43c-5.58,0-10.1,4.05-10.1,9v230.4c0,5,4.52,9,10.1,9H518.26c5.58,0,10.1-4,10.1-9Z" fill="#5665e8"/>
        <path id="Path_42930" data-name="Path 42930" d="M507,584.7a9.53,9.53,0,0,0-4.68-8.24,131.45,131.45,0,0,1,0-226.85,9.55,9.55,0,0,0,4.68-8.24h0a9.59,9.59,0,0,0-9.58-9.61H123.9a9.59,9.59,0,0,0-9.57,9.61V586a9.6,9.6,0,0,0,9.57,9.61H497.37A9.6,9.6,0,0,0,507,586Z" fill="#5665e8"/>
        <circle id="Ellipse_392" data-name="Ellipse 392" cx="94.75" cy="94.75" r="94.75" transform="translate(483.48 1232.83)" fill="#5665e8"/>
        <path id="Path_42931" data-name="Path 42931" d="M506.61,1297.68c0-7.28,5.67-13.72,17.71-13.72S542,1290.4,542,1297.68a11.94,11.94,0,0,1-6.58,11,13.13,13.13,0,0,1,7.84,12.47c0,10.22-8.47,16-18.91,16s-18.9-5.74-18.9-16a13.1,13.1,0,0,1,7.77-12.47,11.75,11.75,0,0,1-6.61-11Zm10.36,22.9c0,3.85,2.73,6.72,7.35,6.72s7.22-2.94,7.22-6.72c0-4.2-2.94-6.72-7.22-6.72s-7.32,2.38-7.32,6.72Zm13.38-21.08c0-3.85-2.46-6-6-6s-6,2.17-6,6.09c0,3.71,2.59,5.88,6,5.88a5.68,5.68,0,0,0,6-5.97Z" fill="#fff"/>
        <path id="Path_42932" data-name="Path 42932" d="M586.15,1284.94v10.5H564.3v9.66c1.83-2,5.33-3.5,9.39-3.5,11.13,0,15.4,8.48,15.4,16.74,0,10.78-6.3,17.78-17.64,17.78-11.49,0-18.14-6.37-18.56-15.19h11.69c.49,2.66,2.52,5,6.45,5,4.55,0,6.51-3.29,6.51-7.7,0-4.62-2.31-7.07-6.58-7.07-3.36,0-5.33,1.82-6,4.2H553.45V1284.9Z" fill="#fff"/>
        <path id="Path_42933" data-name="Path 42933" d="M606.39,1286.06c6.65,0,11.62,4.06,11.62,11.83s-5,11.84-11.62,11.84-11.7-4.07-11.7-11.84S599.73,1286.06,606.39,1286.06ZM603,1297.89c0,3.29,1.27,4.76,3.37,4.76s3.43-1.47,3.43-4.76-1.33-4.83-3.43-4.83S603,1294.53,603,1297.89Zm27.74-11.06h11.55l-27,49.29H603.73Zm9,26.4c6.65,0,11.62,4,11.62,11.83s-5,11.83-11.62,11.83S628,1332.83,628,1325.06s5-11.83,11.65-11.83Zm-3.43,11.83c0,3.29,1.26,4.76,3.36,4.76s3.43-1.47,3.43-4.76-1.33-4.83-3.43-4.83-3.45,1.54-3.45,4.83Z" fill="#fff"/>
        <path id="Path_42934" data-name="Path 42934" d="M573.57,345.73a117.94,117.94,0,1,0,73.3,210.33,38.77,38.77,0,0,1,41.4-64.83,118,118,0,0,0-114.7-145.5Z" fill="#5665e8"/>
        <path id="Path_42935" data-name="Path 42935" d="M786.23,1410.85v19.29c0,1.59.42,2,2,2h28.29a9.489,9.489,0,0,0,5.82-2,16.45,16.45,0,0,0,5.38-7.07,31.351,31.351,0,0,0,.79-22.4c-.35-1.06-.43-1.08-1.21-.3l-11.15,11.15q-5.54,5.54-11.07,11.06c-1.11,1.11-2,1.2-3,.21q-5.77-5.71-11.5-11.5c-1-1-.91-1.8.07-2.8s2-2,3-3c1.36-1.36,2-1.36,3.38,0,1.89,1.87,3.79,3.74,5.64,5.65.63.65,1.07.64,1.63,0s1.07-1.12,1.62-1.66q8.1-8.12,16.22-16.22c1-1,.92-1.09-.19-1.88a9.821,9.821,0,0,0-5.91-1.72H788.56c-2,0-2.31.33-2.31,2.38Zm0-49.7v19.4c0,1.43.37,1.8,1.8,1.82h5.25c1.68,0,2-.32,2-2v-12.13c0-1.21.18-1.33,1.38-1.17a83.669,83.669,0,0,0,10.37.7,79.986,79.986,0,0,0,11.67-.74c1.09-.15,1.22,0,1.23,1.11s0,2.22,0,3.33v9.19c0,.9.21,1.68,1.28,1.7,2.15.05,4.31,0,6.46,0A1.26,1.26,0,0,0,829,1381c0-.4,0-.81,0-1.21V1341.3a1.32,1.32,0,0,0-1.39-1.41h-6.27a1.27,1.27,0,0,0-1.37,1.41q0,.555,0,1.11v13.64c0,1.51,0,1.57-1.54,1.79s-3.2.41-4.81.55a72.5,72.5,0,0,1-16.91-.55c-1.11-.16-1.43-.64-1.42-1.72v-14.35c0-1.56-.33-1.89-1.91-1.9H788.3c-1.77,0-2.07.3-2.07,2.06Zm92.48,47.34v-17.03c0-1.2-.36-1.68-1.38-1.7h-6.27a1.27,1.27,0,0,0-1.37,1.41v28.99c0,1.62,0,1.65-1.63,2a54,54,0,0,1-20.47.17c-2.92-.54-2.55-.24-2.55-3v-27.48c0-1.76-.3-2-2.07-2h-4.65c-2,0-2.34.29-2.34,2.34v32.63a4.25,4.25,0,0,0,2.34,4,19.267,19.267,0,0,0,5.28,2,63.071,63.071,0,0,0,25.27.51,21.369,21.369,0,0,0,8.06-2.77,3.7,3.7,0,0,0,1.86-3.45c-.11-5.64-.08-11.11-.08-16.62ZM836,1358.69c0,5.45.06,10.91,0,16.37a3.85,3.85,0,0,0,2,3.65,19.347,19.347,0,0,0,6.31,2.36,64.8,64.8,0,0,0,23.19.56,27,27,0,0,0,8.59-2.55,4.46,4.46,0,0,0,2.71-4.41c-.09-6,0-12.06,0-18.09v-14.65c0-1.62-.42-2-2.05-2H872c-2,0-2.26.22-2.26,2.27v28.09c0,1.65,0,1.69-1.58,2a53.94,53.94,0,0,1-21.07.1c-2.37-.46-2-.37-2-2.53v-27.89c0-1.76-.29-2-2.07-2h-5c-1.58,0-1.89.33-1.89,1.91Q835.95,1350.26,836,1358.69Z" fill="#0000e8"/>
        <rect id="Rectangle_18146" data-name="Rectangle 18146" width="270.49" height="557.71" rx="32.15" transform="translate(860.97 724.94) rotate(90)" fill="#3434e9"/>
        <rect id="Rectangle_18147" data-name="Rectangle 18147" width="527.72" height="237.98" rx="12" transform="translate(319.89 741.13)" fill="#8694e0"/>
        <ellipse id="Ellipse_393" data-name="Ellipse 393" cx="87.04" cy="106.36" rx="87.04" ry="106.36" transform="translate(496.71 753.83)" fill="#2828ad" stroke="#c7c7e5" stroke-miterlimit="10" stroke-width="0.25"/>
        <ellipse id="Ellipse_394" data-name="Ellipse 394" cx="47.62" cy="47.78" rx="47.62" ry="47.78" transform="translate(305.07 724.94)" fill="#3434e9"/>
        <path id="Path_42936" data-name="Path 42936" d="M352.69,803.47a30.75,30.75,0,1,1,30.65-30.75,30.75,30.75,0,0,1-30.65,30.75Z" fill="#d3d4dd"/>
        <ellipse id="Ellipse_395" data-name="Ellipse 395" cx="47.62" cy="47.78" rx="47.62" ry="47.78" transform="translate(305.07 899.42)" fill="#3434e9"/>
        <path id="Path_42937" data-name="Path 42937" d="M352.69,978a30.76,30.76,0,1,1,30.65-30.76A30.76,30.76,0,0,1,352.69,978Z" fill="#d3d4dd"/>
        <ellipse id="Ellipse_396" data-name="Ellipse 396" cx="47.62" cy="47.78" rx="47.62" ry="47.78" transform="translate(764.93 725.39)" fill="#3434e9"/>
        <path id="Path_42938" data-name="Path 42938" d="M812.55,803.92a30.75,30.75,0,1,1,30.65-30.75,30.75,30.75,0,0,1-30.65,30.75Z" fill="#d3d4dd"/>
        <ellipse id="Ellipse_397" data-name="Ellipse 397" cx="47.62" cy="47.78" rx="47.62" ry="47.78" transform="translate(764.93 899.88)" fill="#3434e9"/>
        <path id="Path_42939" data-name="Path 42939" d="M812.55,978.41a30.76,30.76,0,1,1,30.65-30.75,30.76,30.76,0,0,1-30.65,30.75Z" fill="#d3d4dd"/>
        <path id="Path_42940" data-name="Path 42940" d="M350.57,787.62c-4.95-.57-8.49-3.24-8.88-7.76a.56.56,0,0,1,.56-.6h5.22a.57.57,0,0,1,.55.48,3.62,3.62,0,0,0,2.26,2.94.57.57,0,0,0,.79-.52v-6.84a.55.55,0,0,0-.42-.54c-4.23-1.07-9-2.41-9-8.43,0-4.81,3.71-8,8.92-8.57a.55.55,0,0,0,.5-.55v-2.35a.56.56,0,0,1,.56-.55h1.57a.56.56,0,0,1,.56.55v2.35a.55.55,0,0,0,.5.55c4.76.53,8,3.11,8.59,7.56a.56.56,0,0,1-.56.63h-5.24a.57.57,0,0,1-.55-.47,3.75,3.75,0,0,0-1.92-2.59.56.56,0,0,0-.82.5v6.67a.56.56,0,0,0,.41.54c4.28,1.1,9.09,2.36,9.09,8.39,0,4.16-3.18,8-9,8.65a.56.56,0,0,0-.51.55v2.35a.56.56,0,0,1-.56.55h-1.57a.56.56,0,0,1-.56-.55v-2.4a.55.55,0,0,0-.49-.54Zm.5-18.73v-5.75a.57.57,0,0,0-.74-.54,3.35,3.35,0,0,0-2.54,3.46,3.53,3.53,0,0,0,2.48,3.34.57.57,0,0,0,.8-.51Zm2.69,7.56v5.83a.57.57,0,0,0,.75.53,3.65,3.65,0,0,0,2.65-3.55c0-1.71-1.06-2.66-2.62-3.32a.56.56,0,0,0-.78.51Z" fill="#3434e9"/>
        <path id="Path_42941" data-name="Path 42941" d="M350.57,962c-4.95-.57-8.49-3.24-8.88-7.76a.56.56,0,0,1,.56-.6h5.22a.57.57,0,0,1,.55.48,3.62,3.62,0,0,0,2.26,2.94.57.57,0,0,0,.79-.52V949.7a.55.55,0,0,0-.42-.54c-4.23-1.07-9-2.41-9-8.43,0-4.81,3.71-8,8.92-8.57a.55.55,0,0,0,.5-.55v-2.35a.56.56,0,0,1,.56-.55h1.57a.56.56,0,0,1,.56.55v2.35a.55.55,0,0,0,.5.55c4.76.53,8,3.11,8.59,7.56a.56.56,0,0,1-.56.63h-5.24a.57.57,0,0,1-.55-.47,3.75,3.75,0,0,0-1.92-2.59.56.56,0,0,0-.82.5v6.67a.56.56,0,0,0,.41.54c4.28,1.1,9.09,2.36,9.09,8.39,0,4.16-3.18,8-9,8.66a.55.55,0,0,0-.51.54v2.35a.56.56,0,0,1-.56.55h-1.57a.56.56,0,0,1-.56-.55v-2.4a.55.55,0,0,0-.49-.54Zm.5-18.73v-5.75a.57.57,0,0,0-.74-.54,3.36,3.36,0,0,0-2.54,3.46,3.53,3.53,0,0,0,2.48,3.34.57.57,0,0,0,.8-.56Zm2.69,7.56v5.83a.57.57,0,0,0,.75.53,3.65,3.65,0,0,0,2.65-3.55c0-1.71-1.06-2.66-2.62-3.32a.56.56,0,0,0-.78.46Z" fill="#3434e9"/>
        <path id="Path_42942" data-name="Path 42942" d="M810.66,786.78c-4.94-.57-8.49-3.24-8.88-7.76a.56.56,0,0,1,.56-.6h5.22a.56.56,0,0,1,.55.48,3.62,3.62,0,0,0,2.26,2.94.57.57,0,0,0,.79-.52v-6.84a.56.56,0,0,0-.42-.54c-4.23-1.07-9-2.41-9-8.43,0-4.81,3.71-8,8.91-8.57a.55.55,0,0,0,.5-.55v-2.34a.56.56,0,0,1,.56-.56h1.57a.56.56,0,0,1,.56.56v2.34a.55.55,0,0,0,.5.55c4.76.53,8,3.11,8.6,7.56a.57.57,0,0,1-.56.63h-5.25a.57.57,0,0,1-.55-.47,3.77,3.77,0,0,0-1.92-2.59.56.56,0,0,0-.82.5v6.67a.55.55,0,0,0,.42.54c4.27,1.11,9.08,2.36,9.08,8.39,0,4.17-3.18,8.06-9,8.66a.55.55,0,0,0-.51.54v2.35a.56.56,0,0,1-.56.56H811.7a.56.56,0,0,1-.56-.56v-2.39a.55.55,0,0,0-.48-.55Zm.5-18.73V762.3a.57.57,0,0,0-.73-.54,3.36,3.36,0,0,0-2.55,3.46c0,1.69,1,2.67,2.49,3.34a.56.56,0,0,0,.79-.51Zm2.69,7.57v5.82a.57.57,0,0,0,.76.53,3.64,3.64,0,0,0,2.65-3.55c0-1.7-1.07-2.66-2.62-3.32a.57.57,0,0,0-.79.52Z" fill="#3434e9"/>
        <path id="Path_42943" data-name="Path 42943" d="M812.21,962c-4.94-.57-8.49-3.24-8.88-7.76a.56.56,0,0,1,.56-.6h5.22a.57.57,0,0,1,.55.48,3.62,3.62,0,0,0,2.26,2.94.57.57,0,0,0,.79-.52V949.7a.55.55,0,0,0-.42-.54c-4.23-1.07-9-2.41-9-8.43,0-4.81,3.71-8,8.92-8.57a.55.55,0,0,0,.5-.55v-2.35a.56.56,0,0,1,.56-.55h1.57a.56.56,0,0,1,.56.55v2.35a.55.55,0,0,0,.5.55c4.76.53,8,3.11,8.6,7.56a.57.57,0,0,1-.57.63h-5.24a.57.57,0,0,1-.55-.47,3.75,3.75,0,0,0-1.92-2.59.56.56,0,0,0-.82.5v6.67a.56.56,0,0,0,.42.54c4.27,1.1,9.08,2.36,9.08,8.39,0,4.16-3.18,8-9,8.66a.55.55,0,0,0-.51.54v2.35a.56.56,0,0,1-.56.55h-1.57a.56.56,0,0,1-.56-.55v-2.4A.55.55,0,0,0,812.21,962Zm.5-18.73v-5.75a.57.57,0,0,0-.74-.54,3.36,3.36,0,0,0-2.54,3.46c0,1.69,1,2.67,2.49,3.34a.56.56,0,0,0,.79-.56Zm2.69,7.56v5.83a.57.57,0,0,0,.76.53,3.64,3.64,0,0,0,2.64-3.55c0-1.71-1.06-2.66-2.62-3.32a.56.56,0,0,0-.78.46Z" fill="#3434e9"/>
        <path id="Path_42944" data-name="Path 42944" d="M576.51,915.08c-18.17-2.16-31.21-12-32.81-28.54A2.33,2.33,0,0,1,546,884h19a2.33,2.33,0,0,1,2.28,1.94c.9,5.06,3.57,8.75,8.15,10.69a2.32,2.32,0,0,0,3.17-2.16V869.52a2.31,2.31,0,0,0-1.75-2.24c-15.7-4-33.29-9-33.29-31.33,0-17.82,13.7-29.67,32.94-31.87a2.34,2.34,0,0,0,2.1-2.31v-8.25a2.31,2.31,0,0,1,2.31-2.32h5.38a2.32,2.32,0,0,1,2.32,2.32v8.27a2.32,2.32,0,0,0,2.07,2.29c17.48,2,29.43,11.49,31.75,27.82a2.34,2.34,0,0,1-2.31,2.65H601a2.32,2.32,0,0,1-2.25-1.86,14,14,0,0,0-6.67-9.28,2.32,2.32,0,0,0-3.52,2v24.25a2.3,2.3,0,0,0,1.73,2.24c15.9,4.1,33.71,8.81,33.71,31.15,0,15.47-11.74,29.9-33.24,32.21a2.34,2.34,0,0,0-2.11,2.31v8.24a2.32,2.32,0,0,1-2.32,2.31H580.9a2.31,2.31,0,0,1-2.31-2.31v-8.43a2.33,2.33,0,0,0-2.08-2.3Zm2.08-70V824.31a2.32,2.32,0,0,0-3-2.22c-5.55,1.76-9.2,5.95-9.2,12.77,0,6.18,3.54,9.82,8.94,12.31a2.31,2.31,0,0,0,3.26-2.12Zm10,28.86v21a2.31,2.31,0,0,0,3,2.2c6.11-2.13,9.62-7,9.62-13.14s-3.81-9.76-9.45-12.22a2.32,2.32,0,0,0-3.16,2.13Z" fill="#d3d3f2"/>
        <path id="Path_42945" data-name="Path 42945" d="M827.9,582.19A76.82,76.82,0,1,1,676.21,565a38.72,38.72,0,0,0,35-38.56,37.731,37.731,0,0,0-1.11-9.19h0a76.83,76.83,0,0,1,117.79,65Z" fill="#d7dcf4"/>
        <path id="Path_42946" data-name="Path 42946" d="M741.32,552.63v8.59H723.46v7.9c1.49-1.66,4.35-2.86,7.67-2.86,9.1,0,12.59,6.92,12.59,13.68,0,8.81-5.15,14.54-14.42,14.54s-14.82-5.21-15.17-12.42h9.56a5,5,0,0,0,5.27,4.12c3.72,0,5.32-2.69,5.32-6.3,0-3.78-1.89-5.78-5.38-5.78a4.63,4.63,0,0,0-4.87,3.43h-9.44v-24.9Z" fill="#000787"/>
        <path id="Path_42947" data-name="Path 42947" d="M757.86,553.55c5.44,0,9.51,3.32,9.51,9.67s-4.07,9.68-9.51,9.68-9.55-3.32-9.55-9.68S752.43,553.55,757.86,553.55Zm-2.8,9.67c0,2.69,1,3.9,2.75,3.9s2.8-1.21,2.8-3.9-1.08-4-2.8-4S755.06,560.48,755.06,563.22Zm22.67-9h9.44l-22,40.3h-9.44Zm7.32,21.58c5.44,0,9.51,3.26,9.51,9.67s-4.07,9.68-9.51,9.68-9.5-3.32-9.5-9.68,4.07-9.71,9.5-9.71Zm-2.8,9.67c0,2.69,1,3.9,2.75,3.9s2.8-1.21,2.8-3.9-1.09-3.95-2.8-3.95-2.75,1.22-2.75,3.91Z" fill="#000787"/>
        <path id="Path_42948" data-name="Path 42948" d="M201.52,1133v-44.15a23.58,23.58,0,0,1,8.71-18.94c5.43-4.57,12.17-6.39,16.36-7.19l162.08.24" fill="none" stroke="#c0c0f9" stroke-linecap="round" stroke-linejoin="round" stroke-width="11" stroke-dasharray="3 20 3 20 3 20"/>
        <circle id="Ellipse_398" data-name="Ellipse 398" cx="57.18" cy="57.18" r="57.18" transform="translate(775.03 1189.67)" fill="#d7dcf4"/>
        <path id="Path_42949" data-name="Path 42949" d="M800.18,1226.71H796V1220h11.7v30.84h-7.52Z" fill="#000787"/>
        <path id="Path_42950" data-name="Path 42950" d="M834.37,1220v6.34H821.18v5.83a7.769,7.769,0,0,1,5.67-2.11c6.71,0,9.29,5.11,9.29,10.1,0,6.51-3.8,10.73-10.65,10.73s-10.94-3.84-11.19-9.17h7.05a3.66,3.66,0,0,0,3.89,3c2.75,0,3.93-2,3.93-4.65s-1.39-4.27-4-4.27a3.41,3.41,0,0,0-3.59,2.54h-7V1220Z" fill="#000787"/>
        <path id="Path_42951" data-name="Path 42951" d="M846.58,1220.63c4,0,7,2.45,7,7.14s-3,7.14-7,7.14-7.06-2.45-7.06-7.14S842.56,1220.63,846.58,1220.63Zm-2.07,7.14c0,2,.76,2.87,2,2.87s2.07-.88,2.07-2.87-.81-2.91-2.07-2.91S844.51,1225.74,844.51,1227.77Zm16.73-6.68h7L852,1250.84h-7Zm5.41,15.94c4,0,7,2.4,7,7.14s-3,7.14-7,7.14-7-2.45-7-7.14,2.99-7.17,7-7.17Zm-2.07,7.14c0,2,.76,2.87,2,2.87s2.07-.89,2.07-2.87-.8-2.92-2.07-2.92-2,.93-2,2.92Z" fill="#000787"/>
        <path id="Path_42952" data-name="Path 42952" d="M832.13,1161.19q.09-35.82.17-71.65a23.52,23.52,0,0,0-23-22.89l-35-.33" fill="none" stroke="#c0c0f9" stroke-linecap="round" stroke-linejoin="round" stroke-width="11" stroke-dasharray="3 20 3 20 3 20"/>
        <path id="Path_42953" data-name="Path 42953" d="M577.84,675.78c-.09-26.72.16-53.44.23-80.16" fill="none" stroke="#c0c0f9" stroke-linecap="round" stroke-linejoin="round" stroke-width="11" stroke-dasharray="3 20 3 20 3 20"/>
        <path id="Path_42954" data-name="Path 42954" d="M679.53,504.21v15.58h15.15v13.32H679.53V548.6h-14.1V533.11H650.28V519.79h15.15V504.21Z" fill="#fff"/>
        <path id="Path_42955" data-name="Path 42955" d="M845,586.93c50.17.31,101.14.31,151,.31,6.79,3.9,12.46,9.75,12.46,16.57,0,256.36,3.4,512.71,1.13,769.07,0,5.84-3.4,10.72-7.93,15.59-2.27,2.93-6.8,2.93-10.2,3.9-19.25,1-37.38,0-56.7.23" fill="none" stroke="#c0c0f9" stroke-linecap="round" stroke-linejoin="round" stroke-width="11" stroke-dasharray="3 20 3 20 3 20"/>
        <path id="Path_42956" data-name="Path 42956" d="M530.68,497H499.6V430.3h30c13.59,0,21.67,6.75,21.67,17.3A15.14,15.14,0,0,1,540,462.81a16.19,16.19,0,0,1,12.84,16.07C552.84,489.91,544.75,497,530.68,497Zm-4.18-53.72H515.85v14H526.5c5.33,0,8.27-2.38,8.27-6.94s-2.94-7.02-8.27-7.02Zm1.14,25.86H515.85v14.74h12c5.42,0,8.56-2.47,8.56-7.23s-3.35-7.47-8.77-7.47Z" fill="#fff"/>
        <path id="Path_42957" data-name="Path 42957" d="M562.25,430.3h16.26V497H562.25Z" fill="#fff"/>
        <path id="Path_42958" data-name="Path 42958" d="M650.28,463.67c0,19.77-13.69,33.37-35,33.37h-25V430.3h25C636.59,430.3,650.28,443.8,650.28,463.67Zm-36,19.3c12.27,0,19.49-7,19.49-19.3s-7.22-19.49-19.49-19.49h-7.7V483Z" fill="#fff"/>
        <path id="Path_42959" data-name="Path 42959" d="M183.19,349v40.35h15.86v9.35h-28V349Z" fill="#fff"/>
        <path id="Path_42960" data-name="Path 42960" d="M204.86,349H217v49.7H204.86Z" fill="#fff"/>
        <path id="Path_42961" data-name="Path 42961" d="M243.73,399.16c-10.69,0-19-5.31-19.4-15.36h12.89c.35,3.82,2.76,5.66,6.16,5.66s5.8-1.77,5.8-4.67c0-9.2-24.85-4.25-24.71-21.88,0-9.41,7.72-14.65,18.13-14.65,10.83,0,18.12,5.38,18.62,14.87h-13.1c-.21-3.19-2.48-5.1-5.73-5.17-2.91-.07-5.1,1.41-5.1,4.53,0,8.64,24.57,4.74,24.57,21.38C261.86,392.23,255.34,399.16,243.73,399.16Z" fill="#fff"/>
        <path id="Path_42962" data-name="Path 42962" d="M266.6,349h38.45v9.7H291.88v40H279.77v-40H266.6Z" fill="#fff"/>
        <path id="Path_42963" data-name="Path 42963" d="M341.58,358.67H323.24v10.05h16.22v9.35H323.24V389h18.34v9.7H311.13V349h30.45Z" fill="#fff"/>
        <path id="Path_42964" data-name="Path 42964" d="M369.76,349c12.18,0,18.26,7,18.26,15.64,0,6.23-3.39,12.11-11,14.38l11.47,19.68h-13.7l-10.34-18.76h-2.9V398.7H349.44V349Zm-.71,10h-7.5v12.32h7.5c4.53,0,6.66-2.34,6.66-6.23,0-3.66-2.13-6.09-6.66-6.09Z" fill="#fff"/>
        <path id="Path_42965" data-name="Path 42965" d="M199.59,426.16a8.93,8.93,0,0,1,7.94,4v-3.65h7.9v25.75h-7.9v-3.64a9.1,9.1,0,0,1-8,4c-6.28,0-11.31-5.17-11.31-13.29S193.27,426.16,199.59,426.16ZM201.9,433c-3,0-5.63,2.21-5.63,6.32s2.68,6.42,5.63,6.42,5.63-2.27,5.63-6.37S204.9,433,201.9,433Z" fill="#fff"/>
        <path id="Path_42966" data-name="Path 42966" d="M218.47,426.53h7.9L230,445l4.34-18.42h8.36l4.38,18.32,3.6-18.32h7.43l-7,25.75h-8.72l-4.06-16.7-4.2,16.7h-8.68Z" fill="#fff"/>
        <path id="Path_42967" data-name="Path 42967" d="M270.91,426.16a9,9,0,0,1,7.94,4v-3.65h7.9v25.75h-7.9v-3.64a9.1,9.1,0,0,1-8,4c-6.28,0-11.31-5.17-11.31-13.29S264.59,426.16,270.91,426.16Zm2.31,6.88c-3,0-5.63,2.21-5.63,6.32s2.68,6.42,5.63,6.42,5.63-2.27,5.63-6.37-2.63-6.41-5.63-6.41Z" fill="#fff"/>
        <path id="Path_42968" data-name="Path 42968" d="M300.36,452.28h-7.89V426.53h7.89v4.29a9.62,9.62,0,0,1,8.08-4.57v8.36h-2.17c-3.74,0-5.91,1.29-5.91,5.72Z" fill="#fff"/>
        <path id="Path_42969" data-name="Path 42969" d="M322,426.16a9.46,9.46,0,0,1,7.94,3.92V418.13h7.89v34.15H330v-3.69a8.89,8.89,0,0,1-7.94,4.06c-6.32,0-11.35-5.17-11.35-13.29S315.69,426.16,322,426.16Zm2.31,6.88c-2.95,0-5.63,2.21-5.63,6.32s2.68,6.42,5.63,6.42,5.63-2.27,5.63-6.37-2.62-6.41-5.62-6.41Z" fill="#fff"/>
        <path id="Path_42970" data-name="Path 42970" d="M354.05,452.65c-6.88,0-11.5-3.83-11.87-8.81H350c.18,1.8,1.8,3,4,3s3.09-.92,3.09-2.08c0-4.15-14-1.15-14-10.62,0-4.38,3.73-8,10.47-8s10.34,3.69,10.85,8.77h-7.29c-.23-1.75-1.57-2.91-3.79-2.91-1.84,0-2.86.74-2.86,2,0,4.1,13.94,1.2,14.08,10.8C364.48,449.28,360.51,452.65,354.05,452.65Z" fill="#fff"/>
        <path id="Path_42971" data-name="Path 42971" d="M215.7,481.55c6.33,0,11.36,5.08,11.36,13.2s-5,13.3-11.36,13.3a9.28,9.28,0,0,1-7.94-4V520h-7.89V482h7.89v3.65a9.11,9.11,0,0,1,7.94-4.1Zm-2.35,6.88c-2.95,0-5.63,2.26-5.63,6.37s2.68,6.37,5.63,6.37,5.68-2.31,5.68-6.42-2.68-6.32-5.68-6.32Z" fill="#fff"/>
        <path id="Path_42972" data-name="Path 42972" d="M239.11,507.68h-7.9V481.92h7.9v4.29a9.59,9.59,0,0,1,8.07-4.56V490H245c-3.74,0-5.91,1.29-5.91,5.72Z" fill="#fff"/>
        <path id="Path_42973" data-name="Path 42973" d="M262.7,508.05c-7.58,0-13.3-5.08-13.3-13.25s5.86-13.25,13.39-13.25,13.38,5.08,13.38,13.25S270.26,508.05,262.7,508.05Zm0-6.83c2.81,0,5.44-2.08,5.44-6.42s-2.58-6.42-5.35-6.42-5.36,2-5.36,6.42S259.83,501.22,262.7,501.22Z" fill="#fff"/>
        <path id="Path_42974" data-name="Path 42974" d="M288.27,481.92V511c0,6.69-3.74,9-9.09,9h-3.1v-6.7H278c1.75,0,2.39-.64,2.39-2.17V481.92ZM279.59,475c0-2.4,1.89-4.29,4.71-4.29a4.29,4.29,0,1,1,0,8.54C281.48,479.25,279.59,477.35,279.59,475Z" fill="#fff"/>
        <path id="Path_42975" data-name="Path 42975" d="M305.39,508.05c-7.57,0-13-5.08-13-13.25s5.35-13.25,13-13.25,12.84,5,12.84,12.83a20.433,20.433,0,0,1-.14,2.31H300.22c.28,3.37,2.36,4.94,4.9,4.94a4.19,4.19,0,0,0,4.1-2.49h8.41C316.38,504.17,311.81,508.05,305.39,508.05Zm-5.12-15.74h9.88c0-2.82-2.22-4.43-4.85-4.43a4.88,4.88,0,0,0-5.03,4.43Z" fill="#fff"/>
        <path id="Path_42976" data-name="Path 42976" d="M333.74,481.55c6.46,0,11,3.56,12.37,9.7h-8.4a4.08,4.08,0,0,0-4.11-3c-2.82,0-4.76,2.22-4.76,6.51s1.94,6.51,4.76,6.51a4,4,0,0,0,4.11-3h8.4c-1.34,6-5.91,9.7-12.37,9.7-7.57,0-12.93-5.08-12.93-13.25S326.17,481.55,333.74,481.55Z" fill="#fff"/>
        <path id="Path_42977" data-name="Path 42977" d="M351.56,488.48h-3.14v-6.56h3.14v-6.28h7.89v6.28h5.17v6.56h-5.17v10.34c0,1.52.64,2.17,2.4,2.17h2.81v6.69h-4c-5.36,0-9.09-2.26-9.09-9Z" fill="#fff"/>
        <path id="Path_42978" data-name="Path 42978" d="M183.65,537a8.94,8.94,0,0,1,7.93,4v-3.64h7.9v25.75h-7.9v-3.64a9.1,9.1,0,0,1-8,4c-6.28,0-11.31-5.17-11.31-13.29S177.32,537,183.65,537Zm2.3,6.87c-2.95,0-5.63,2.22-5.63,6.33s2.68,6.41,5.63,6.41,5.63-2.26,5.63-6.37-2.58-6.42-5.58-6.42Z" fill="#fff"/>
        <path id="Path_42979" data-name="Path 42979" d="M223,549.09c0-3.51-1.93-5.45-4.93-5.45s-4.94,1.94-4.94,5.45v14h-7.9V537.32h7.9v3.41a9.44,9.44,0,0,1,7.8-3.69c5.95,0,9.92,4.06,9.92,11v15.05H223Z" fill="#fff"/>
        <path id="Path_42980" data-name="Path 42980" d="M246.1,537a9.46,9.46,0,0,1,7.94,3.92v-12h7.89v34.15H254v-3.69a8.91,8.91,0,0,1-7.94,4.06c-6.32,0-11.35-5.17-11.35-13.29S239.78,537,246.1,537Zm2.31,6.87c-2.95,0-5.63,2.22-5.63,6.33s2.68,6.41,5.63,6.41,5.63-2.26,5.63-6.37-2.63-6.42-5.63-6.42Z" fill="#fff"/>
        <path id="Path_42981" data-name="Path 42981" d="M293.28,537c6.32,0,11.35,5.07,11.35,13.2s-5,13.29-11.35,13.29a9.26,9.26,0,0,1-7.94-4v15.88h-7.9v-38h7.9V541A9.07,9.07,0,0,1,293.28,537Zm-2.36,6.87c-2.95,0-5.63,2.27-5.63,6.37s2.68,6.37,5.63,6.37,5.68-2.3,5.68-6.41-2.68-6.38-5.68-6.38Z" fill="#fff"/>
        <path id="Path_42982" data-name="Path 42982" d="M318.57,537a9,9,0,0,1,7.94,4v-3.64h7.9v25.75h-7.9v-3.64a9.1,9.1,0,0,1-8,4c-6.28,0-11.31-5.17-11.31-13.29S312.25,537,318.57,537Zm2.31,6.87c-2.95,0-5.63,2.22-5.63,6.33s2.68,6.41,5.63,6.41,5.63-2.26,5.63-6.37-2.63-6.42-5.63-6.42Z" fill="#fff"/>
        <path id="Path_42983" data-name="Path 42983" d="M357.9,537.32h8.54l-16.15,38h-8.5l5.91-13.11-10.48-24.87H346l5.95,16.1Z" fill="#fff"/>
        <path id="Path_42984" data-name="Path 42984" d="M379.78,563.44c-6.88,0-11.49-3.83-11.86-8.81h7.8c.18,1.79,1.8,3,4,3s3.09-.93,3.09-2.08c0-4.16-14-1.16-14-10.62,0-4.38,3.74-8,10.48-8s10.34,3.69,10.85,8.77h-7.3c-.23-1.76-1.57-2.91-3.78-2.91-1.85,0-2.86.74-2.86,2,0,4.11,13.94,1.2,14.07,10.8C390.21,560.07,386.24,563.44,379.78,563.44Z" fill="#fff"/>
        <path id="Path_42985" data-name="Path 42985" d="M730.89,607.87H729v-2.71h1.89V604c0-3.69,1.89-5.29,6.08-5.29v2.76c-2,0-2.73.7-2.73,2.53v1.14h3v2.71h-3v13.32h-3.35Z" fill="#000787"/>
        <path id="Path_42986" data-name="Path 42986" d="M747,621.45c-4.6,0-8-3.25-8-8.29s3.26-8.26,8-8.26a7.48,7.48,0,0,1,7.8,7.88,9.861,9.861,0,0,1-.12,1.63H742.47a4.41,4.41,0,0,0,4.57,4.25,3.87,3.87,0,0,0,3.78-2.24h3.58a7.32,7.32,0,0,1-7.4,5.03Zm-4.54-9.71h8.87a4.15,4.15,0,0,0-4.48-4,4.36,4.36,0,0,0-4.35,4Z" fill="#000787"/>
        <path id="Path_42987" data-name="Path 42987" d="M765,621.45c-4.6,0-8-3.25-8-8.29s3.26-8.26,8-8.26a7.47,7.47,0,0,1,7.79,7.88,11.066,11.066,0,0,1-.11,1.63H760.43a4.41,4.41,0,0,0,4.57,4.25,3.88,3.88,0,0,0,3.78-2.24h3.58a7.33,7.33,0,0,1-7.36,5.03Zm-4.54-9.71h8.87a4.17,4.17,0,0,0-4.48-4,4.36,4.36,0,0,0-4.39,4Z" fill="#000787"/>
        <path id="Path_42988" data-name="Path 42988" d="M241.39,1250.13c0,16-11.09,27-28.35,27H192.78v-54.08H213C230.3,1223.09,241.39,1234,241.39,1250.13Zm-29.2,15.64c9.94,0,15.8-5.7,15.8-15.64s-5.86-15.8-15.8-15.8H206v31.44Z" fill="#fff"/>
        <path id="Path_42989" data-name="Path 42989" d="M274.37,1277.71c-15.33,0-27.81-11.48-27.81-27.74s12.48-27.65,27.81-27.65S302,1233.72,302,1250,289.71,1277.71,274.37,1277.71Zm0-12c8.63,0,14.26-6.24,14.26-15.72,0-9.63-5.63-15.71-14.26-15.71-8.78,0-14.33,6.08-14.33,15.71-.04,9.46,5.55,15.7,14.33,15.7Z" fill="#fff"/>
        <path id="Path_42990" data-name="Path 42990" d="M342.49,1233.64h-20v10.94h17.64v10.17h-17.6v11.86h20v10.56H309.36v-54.08h33.13Z" fill="#fff"/>
        <path id="Path_42991" data-name="Path 42991" d="M373.15,1223.09c13.25,0,19.88,7.62,19.88,17,0,6.78-3.7,13.18-12,15.64l12.48,21.42H378.62l-11.25-20.42h-3.16v20.42H351v-54.08Zm-.77,10.94h-8.17v13.4h8.17c4.93,0,7.24-2.54,7.24-6.78,0-4-2.31-6.65-7.24-6.65Z" fill="#fff"/>
        <path id="Path_42992" data-name="Path 42992" d="M207.09,1324.6h-7.17v-23.39h7.17v3.9a8.72,8.72,0,0,1,7.33-4.15v7.59h-2c-3.39,0-5.36,1.17-5.36,5.19Z" fill="#fff"/>
        <path id="Path_42993" data-name="Path 42993" d="M228.25,1324.94c-6.87,0-11.82-4.61-11.82-12s4.87-12,11.82-12,11.66,4.52,11.66,11.65a18.9,18.9,0,0,1-.13,2.09H223.56c.25,3.06,2.14,4.49,4.44,4.49a3.81,3.81,0,0,0,3.73-2.26h7.63C238.23,1321.42,234.08,1324.94,228.25,1324.94Zm-4.65-14.3h9c0-2.55-2-4-4.4-4A4.43,4.43,0,0,0,223.6,1310.64Z" fill="#fff"/>
        <path id="Path_42994" data-name="Path 42994" d="M254,1300.88c5.87,0,10,3.22,11.23,8.8H257.6a3.68,3.68,0,0,0-3.73-2.68c-2.55,0-4.31,2-4.31,5.91s1.76,5.91,4.31,5.91a3.64,3.64,0,0,0,3.73-2.69h7.63c-1.21,5.41-5.36,8.81-11.23,8.81-6.87,0-11.74-4.61-11.74-12S247.12,1300.88,254,1300.88Z" fill="#fff"/>
        <path id="Path_42995" data-name="Path 42995" d="M279.43,1324.94c-6.87,0-11.82-4.61-11.82-12s4.86-12,11.82-12,11.65,4.52,11.65,11.65a18.835,18.835,0,0,1-.12,2.09H274.74c.25,3.06,2.13,4.49,4.44,4.49a3.82,3.82,0,0,0,3.73-2.26h7.63C289.41,1321.42,285.26,1324.94,279.43,1324.94Zm-4.65-14.3h9c0-2.55-2-4-4.4-4A4.43,4.43,0,0,0,274.78,1310.64Z" fill="#fff"/>
        <path id="Path_42996" data-name="Path 42996" d="M294.18,1294.92a4.28,4.28,0,1,1,4.28,3.86,4,4,0,0,1-4.28-3.86Zm.67,6.29H302v23.39h-7.17Z" fill="#fff"/>
        <path id="Path_42997" data-name="Path 42997" d="M312.67,1301.21l5.07,16.68,5.07-16.68h7.63l-8.3,23.39H313.3l-8.3-23.39Z" fill="#fff"/>
        <path id="Path_42998" data-name="Path 42998" d="M343.85,1324.94c-6.87,0-11.82-4.61-11.82-12s4.86-12,11.82-12,11.65,4.52,11.65,11.65a18.835,18.835,0,0,1-.12,2.09H339.16c.25,3.06,2.13,4.49,4.44,4.49a3.82,3.82,0,0,0,3.73-2.26H355C353.83,1321.42,349.68,1324.94,343.85,1324.94Zm-4.65-14.3h9c0-2.55-2-4-4.4-4A4.43,4.43,0,0,0,339.2,1310.64Z" fill="#fff"/>
        <path id="Path_42999" data-name="Path 42999" d="M368.79,1324.94c-6.25,0-10.44-3.48-10.77-8h7.08c.17,1.63,1.63,2.72,3.61,2.72s2.8-.83,2.8-1.88c0-3.77-12.74-1-12.74-9.64,0-4,3.4-7.25,9.52-7.25s9.38,3.35,9.85,8h-6.63c-.21-1.59-1.42-2.64-3.43-2.64-1.68,0-2.6.67-2.6,1.8,0,3.73,12.66,1.09,12.78,9.81C378.26,1321.88,374.66,1324.94,368.79,1324.94Z" fill="#fff"/>
        <path id="Path_43000" data-name="Path 43000" d="M210.67,1351.17c5.75,0,10.31,4.61,10.31,12s-4.56,12.07-10.31,12.07a8.42,8.42,0,0,1-7.21-3.6v14.42h-7.17v-34.54h7.17v3.31A8.27,8.27,0,0,1,210.67,1351.17Zm-2.14,6.25c-2.68,0-5.11,2-5.11,5.78s2.43,5.79,5.11,5.79,5.16-2.1,5.16-5.83S211.26,1357.42,208.53,1357.42Z" fill="#fff"/>
        <path id="Path_43001" data-name="Path 43001" d="M233.64,1351.17a8.15,8.15,0,0,1,7.21,3.65v-3.31H248v23.39h-7.17v-3.31a8.27,8.27,0,0,1-7.25,3.64c-5.7,0-10.27-4.69-10.27-12.07S227.9,1351.17,233.64,1351.17Zm2.1,6.25c-2.69,0-5.12,2-5.12,5.74s2.43,5.83,5.12,5.83,5.11-2.06,5.11-5.79S238.46,1357.42,235.74,1357.42Z" fill="#fff"/>
        <path id="Path_43002" data-name="Path 43002" d="M269.35,1351.51h7.75L262.43,1386h-7.71l5.37-11.9-9.52-22.59h8l5.4,14.63Z" fill="#fff"/>
        <path id="Path_43003" data-name="Path 43003" d="M311.93,1362.2c0-3.06-1.76-4.74-4.48-4.74s-4.49,1.68-4.49,4.74v12.7h-7.12v-12.7c0-3.06-1.76-4.74-4.49-4.74s-4.48,1.68-4.48,4.74v12.7H279.7v-23.39h7.17v2.93a8.26,8.26,0,0,1,6.83-3.18,8.75,8.75,0,0,1,8,4.36,9.38,9.38,0,0,1,7.88-4.36c5.78,0,9.51,3.68,9.51,10v13.67h-7.13Z" fill="#fff"/>
        <path id="Path_43004" data-name="Path 43004" d="M334.48,1375.23c-6.87,0-11.82-4.61-11.82-12s4.86-12,11.82-12,11.65,4.53,11.65,11.66a18.843,18.843,0,0,1-.12,2.09H329.79c.25,3.06,2.14,4.49,4.44,4.49a3.82,3.82,0,0,0,3.73-2.27h7.63C344.46,1371.71,340.31,1375.23,334.48,1375.23Zm-4.65-14.29h9c0-2.56-2-4-4.4-4a4.43,4.43,0,0,0-4.6,4Z" fill="#fff"/>
        <path id="Path_43005" data-name="Path 43005" d="M366,1362.2c0-3.19-1.76-5-4.48-5s-4.49,1.76-4.49,5v12.7h-7.16v-23.39h7.16v3.1a8.58,8.58,0,0,1,7.09-3.35c5.41,0,9,3.68,9,10v13.67H366Z" fill="#fff"/>
        <path id="Path_43006" data-name="Path 43006" d="M379.29,1357.46h-2.85v-6h2.85v-5.7h7.17v5.7h4.69v6h-4.69v9.39c0,1.38.58,2,2.17,2h2.56v6.08h-3.65c-4.86,0-8.25-2.06-8.25-8.13Z" fill="#fff"/>
        <path id="Path_43007" data-name="Path 43007" d="M185.33,1407.76h-2.59v-6h2.59v-.67c0-6.12,3.78-9.13,10.9-8.76v6.08c-2.76-.17-3.73.67-3.73,3.14v.21h3.86v6H192.5v17.43h-7.17Z" fill="#fff"/>
        <path id="Path_43008" data-name="Path 43008" d="M210.36,1425.53c-6.88,0-12.07-4.61-12.07-12s5.32-12,12.15-12,12.16,4.61,12.16,12S217.23,1425.53,210.36,1425.53Zm0-6.21c2.55,0,4.94-1.88,4.94-5.82s-2.34-5.83-4.86-5.83-4.86,1.85-4.86,5.83,2.18,5.82,4.78,5.82Z" fill="#fff"/>
        <path id="Path_43009" data-name="Path 43009" d="M233.58,1425.19h-7.17V1401.8h7.17v3.9a8.72,8.72,0,0,1,7.33-4.15v7.59h-2c-3.39,0-5.36,1.17-5.36,5.2Z" fill="#fff"/>
        <path id="Path_43010" data-name="Path 43010" d="M267.61,1401.47c5.74,0,10.31,4.61,10.31,12s-4.57,12.07-10.31,12.07a8.411,8.411,0,0,1-7.21-3.61v14.42h-7.17V1401.8h7.17v3.32A8.23,8.23,0,0,1,267.61,1401.47Zm-2.14,6.24c-2.68,0-5.11,2.06-5.11,5.79s2.43,5.78,5.11,5.78,5.16-2.09,5.16-5.82-2.43-5.75-5.16-5.75Z" fill="#fff"/>
        <path id="Path_43011" data-name="Path 43011" d="M288.86,1425.19h-7.17V1401.8h7.17v3.9a8.72,8.72,0,0,1,7.33-4.15v7.59h-2c-3.39,0-5.36,1.17-5.36,5.2Z" fill="#fff"/>
        <path id="Path_43012" data-name="Path 43012" d="M310.28,1425.53c-6.88,0-12.07-4.61-12.07-12s5.32-12,12.15-12,12.16,4.61,12.16,12S317.15,1425.53,310.28,1425.53Zm0-6.21c2.55,0,4.94-1.88,4.94-5.82s-2.35-5.83-4.86-5.83-4.86,1.85-4.86,5.83,2.18,5.82,4.78,5.82Z" fill="#fff"/>
        <path id="Path_43013" data-name="Path 43013" d="M333.5,1401.8v26.41c0,6.08-3.4,8.13-8.26,8.13h-2.81v-6.08h1.72c1.59,0,2.18-.58,2.18-2V1401.8Zm-7.88-6.28a4.28,4.28,0,1,1,4.27,3.85,4,4,0,0,1-4.27-3.85Z" fill="#fff"/>
        <path id="Path_43014" data-name="Path 43014" d="M349.05,1425.53c-6.88,0-11.82-4.61-11.82-12s4.86-12,11.82-12,11.65,4.53,11.65,11.65a17.01,17.01,0,0,1-.13,2.1l-16.22,0c.25,3.06,2.14,4.48,4.44,4.48a3.81,3.81,0,0,0,3.74-2.26h7.62C359,1422,354.87,1425.53,349.05,1425.53Zm-4.66-14.3h9c0-2.55-2-4-4.4-4a4.44,4.44,0,0,0-4.6,4Z" fill="#fff"/>
        <path id="Path_43015" data-name="Path 43015" d="M374.78,1401.47c5.87,0,10,3.23,11.23,8.8h-7.62a3.7,3.7,0,0,0-3.73-2.68c-2.56,0-4.32,2-4.32,5.91s1.76,5.91,4.32,5.91a3.65,3.65,0,0,0,3.73-2.68H386c-1.21,5.4-5.36,8.8-11.23,8.8-6.87,0-11.74-4.61-11.74-12S367.91,1401.47,374.78,1401.47Z" fill="#fff"/>
        <path id="Path_43016" data-name="Path 43016" d="M391,1407.76h-2.85v-6H391v-5.7h7.17v5.7h4.69v6h-4.69v9.39c0,1.38.58,2,2.18,2h2.55v6.07h-3.64c-4.87,0-8.26-2-8.26-8.13Z" fill="#fff"/>
        <path id="Path_43017" data-name="Path 43017" d="M541.22,1371.34c-5.46,0-9.58-3.67-9.58-9.56s4.22-9.55,9.65-9.55,9.65,3.66,9.65,9.55S546.68,1371.34,541.22,1371.34Zm0-4.93c2,0,3.93-1.5,3.93-4.63s-1.86-4.62-3.86-4.62-3.86,1.46-3.86,4.62,1.73,4.63,3.79,4.63Z" fill="#fff"/>
        <path id="Path_43018" data-name="Path 43018" d="M554.54,1357.23h-2.07v-4.73h2.07v-.5c0-4.86,3-7.26,8.65-7v4.83c-2.2-.14-3,.53-3,2.49v.17h3.06v4.73h-3.06v13.84H554.5Z" fill="#fff"/>
        <path id="Path_43019" data-name="Path 43019" d="M584.42,1352.23c4.59,0,8.19,3.66,8.19,9.52s-3.63,9.59-8.19,9.59a6.52,6.52,0,0,1-5.72-2.87v2.6H573v-24.63h5.69v8.69A6.54,6.54,0,0,1,584.42,1352.23Zm-1.7,5c-2.13,0-4.06,1.63-4.06,4.59s1.93,4.6,4.06,4.6,4.1-1.67,4.1-4.63-1.93-4.6-4.1-4.6Z" fill="#fff"/>
        <path id="Path_43020" data-name="Path 43020" d="M595.07,1347.51a3.4,3.4,0,1,1,3.4,3.06,3.16,3.16,0,0,1-3.4-3.06Zm.54,5h5.69v18.57h-5.69Z" fill="#fff"/>
        <path id="Path_43021" data-name="Path 43021" d="M612.48,1352.23a6.8,6.8,0,0,1,5.72,2.83v-8.62h5.69v24.63H618.2v-2.66a6.43,6.43,0,0,1-5.72,2.93c-4.56,0-8.19-3.73-8.19-9.59S607.92,1352.23,612.48,1352.23Zm1.66,5c-2.13,0-4.06,1.6-4.06,4.56s1.93,4.63,4.06,4.63,4.06-1.63,4.06-4.6-1.89-4.63-4.06-4.63Z" fill="#fff"/>
        <path id="Path_43022" data-name="Path 43022" d="M801.46,1279.63a7.54,7.54,0,0,1-7.94-7.91c0-4.88,3.5-7.91,8-7.91s8,3,8,7.91S806,1279.63,801.46,1279.63Zm0-4.08c1.69,0,3.26-1.24,3.26-3.83s-1.55-3.83-3.2-3.83-3.2,1.21-3.2,3.83S799.75,1275.55,801.46,1275.55Z" fill="#000787"/>
        <path id="Path_43023" data-name="Path 43023" d="M812.5,1267.94h-1.71V1264h1.71v-.44c0-4,2.48-6,7.16-5.77v4c-1.82-.11-2.45.44-2.45,2.07v.14h2.54v3.91h-2.54v11.47H812.5Z" fill="#000787"/>
        <path id="Path_43024" data-name="Path 43024" d="M837.26,1263.81c3.8,0,6.78,3,6.78,7.88s-3,7.94-6.78,7.94a5.431,5.431,0,0,1-4.75-2.37v2.15H827.8V1259h4.71v7.2a5.44,5.44,0,0,1,4.75-2.39Zm-1.41,4.11c-1.76,0-3.36,1.35-3.36,3.8s1.6,3.8,3.36,3.8,3.39-1.37,3.39-3.83-1.6-3.77-3.39-3.77Z" fill="#000787"/>
        <path id="Path_43025" data-name="Path 43025" d="M846.08,1259.89a2.81,2.81,0,1,1,2.82,2.54,2.61,2.61,0,0,1-2.82-2.54Zm.44,4.14h4.72v15.38h-4.72Z" fill="#000787"/>
        <path id="Path_43026" data-name="Path 43026" d="M860.5,1263.81a5.65,5.65,0,0,1,4.75,2.34V1259H870v20.4h-4.71v-2.2a5.35,5.35,0,0,1-4.75,2.42c-3.77,0-6.78-3.09-6.78-7.94S856.73,1263.81,860.5,1263.81Zm1.38,4.11c-1.76,0-3.36,1.32-3.36,3.77s1.6,3.83,3.36,3.83,3.37-1.35,3.37-3.8S863.67,1267.92,861.88,1267.92Z" fill="#000787"/>
        <path id="Path_43027" data-name="Path 43027" d="M423,1053.69A13.66,13.66,0,1,1,436.66,1040,13.42,13.42,0,0,1,423,1053.69Zm0-5.93c4.25,0,7-3.07,7-7.75s-2.78-7.75-7-7.75-7.07,3-7.07,7.75,2.76,7.75,7.07,7.75Z" fill="#d7dcf4"/>
        <path id="Path_43028" data-name="Path 43028" d="M454.9,1041.91c0-2.88-1.6-4.48-4.07-4.48s-4.06,1.6-4.06,4.48v11.52h-6.5v-21.21h6.5V1035a7.76,7.76,0,0,1,6.42-3c4.9,0,8.17,3.34,8.17,9v12.39H454.9Z" fill="#d7dcf4"/>
        <path id="Path_43029" data-name="Path 43029" d="M475.23,1031.92c5.32,0,9.08,2.93,10.18,8H478.5a3.36,3.36,0,0,0-3.38-2.43c-2.32,0-3.92,1.82-3.92,5.35s1.6,5.36,3.92,5.36a3.3,3.3,0,0,0,3.38-2.43h6.91a9.859,9.859,0,0,1-10.18,8c-6.23,0-10.64-4.18-10.64-10.91S469,1031.92,475.23,1031.92Z" fill="#d7dcf4"/>
        <path id="Path_43030" data-name="Path 43030" d="M498.3,1053.73c-6.24,0-10.72-4.18-10.72-10.91s4.41-10.9,10.72-10.9,10.56,4.1,10.56,10.56a15.508,15.508,0,0,1-.12,1.9H494c.23,2.78,1.94,4.07,4,4.07a3.45,3.45,0,0,0,3.38-2h6.91C507.34,1050.54,503.58,1053.73,498.3,1053.73Zm-4.22-13h8.13c0-2.31-1.82-3.64-4-3.64a4,4,0,0,0-4.13,3.68Z" fill="#d7dcf4"/>
        <path id="Path_43031" data-name="Path 43031" d="M533.37,1031.92c5.24,0,9.35,4.18,9.35,10.87s-4.15,10.94-9.35,10.94a7.46,7.46,0,0,1-6.54-3.27v3h-6.49v-28.12h6.49v9.92a7.5,7.5,0,0,1,6.54-3.34Zm-1.94,5.66c-2.43,0-4.63,1.86-4.63,5.24s2.2,5.25,4.63,5.25,4.67-1.9,4.67-5.28-2.2-5.21-4.67-5.21Z" fill="#d7dcf4"/>
        <path id="Path_43032" data-name="Path 43032" d="M555.79,1053.73c-6.23,0-10.94-4.18-10.94-10.91s4.82-10.9,11-10.9,11,4.18,11,10.9S562,1053.73,555.79,1053.73Zm0-5.62c2.32,0,4.48-1.71,4.48-5.29s-2.12-5.28-4.4-5.28-4.41,1.68-4.41,5.28S553.43,1048.11,555.79,1048.11Z" fill="#d7dcf4"/>
        <path id="Path_43033" data-name="Path 43033" d="M571.37,1037.62h-2.58v-5.4h2.58v-5.16h6.5v5.16h4.25v5.4h-4.25v8.51c0,1.25.53,1.79,2,1.79h2.32v5.51h-3.3c-4.41,0-7.49-1.87-7.49-7.38Z" fill="#d7dcf4"/>
        <path id="Path_43034" data-name="Path 43034" d="M585.77,1025.31h6.5v9.76a7.82,7.82,0,0,1,6.53-3.07c4.83,0,8.06,3.34,8.06,9v12.39H600.4v-11.52c0-2.88-1.6-4.48-4.07-4.48s-4.06,1.6-4.06,4.48v11.52h-6.5Z" fill="#d7dcf4"/>
        <path id="Path_43035" data-name="Path 43035" d="M632.47,1031.92c5.21,0,9.35,4.18,9.35,10.87s-4.14,10.94-9.35,10.94a7.62,7.62,0,0,1-6.53-3.27v13.07h-6.5v-31.31h6.5v3a7.46,7.46,0,0,1,6.53-3.3Zm-1.93,5.66c-2.44,0-4.64,1.86-4.64,5.24s2.2,5.25,4.64,5.25,4.67-1.9,4.67-5.28-2.21-5.21-4.67-5.21Z" fill="#d7dcf4"/>
        <path id="Path_43036" data-name="Path 43036" d="M653.3,1031.92a7.36,7.36,0,0,1,6.53,3.31v-3h6.5v21.21h-6.5v-3a7.48,7.48,0,0,1-6.57,3.31c-5.17,0-9.31-4.26-9.31-10.94S648.09,1031.92,653.3,1031.92Zm1.9,5.66c-2.43,0-4.64,1.83-4.64,5.21s2.21,5.28,4.64,5.28,4.63-1.86,4.63-5.25-2.16-5.24-4.63-5.24Z" fill="#d7dcf4"/>
        <path id="Path_43037" data-name="Path 43037" d="M677.54,1053.43H671v-21.21h6.5v3.54a7.9,7.9,0,0,1,6.65-3.76v6.87H682.4c-3.07,0-4.86,1.07-4.86,4.71Z" fill="#d7dcf4"/>
        <path id="Path_43038" data-name="Path 43038" d="M688.33,1037.62h-2.58v-5.4h2.58v-5.16h6.5v5.16h4.26v5.4h-4.26v8.51c0,1.25.53,1.79,2,1.79h2.31v5.51h-3.3c-4.41,0-7.49-1.87-7.49-7.38Z" fill="#d7dcf4"/>
        <path id="Path_43039" data-name="Path 43039" d="M702.13,1026.53A3.87,3.87,0,1,1,706,1030a3.6,3.6,0,0,1-3.87-3.47Zm.61,5.69h6.49v21.21h-6.49Z" fill="#d7dcf4"/>
        <path id="Path_43040" data-name="Path 43040" d="M723.37,1053.73c-6.23,0-10.72-4.18-10.72-10.91s4.41-10.9,10.72-10.9,10.56,4.1,10.56,10.56a17.739,17.739,0,0,1-.11,1.9H719.11c.23,2.78,1.94,4.07,4,4.07a3.45,3.45,0,0,0,3.38-2h6.92C732.41,1050.54,728.65,1053.73,723.37,1053.73Zm-4.22-13h8.13c0-2.31-1.82-3.64-4-3.64a4,4,0,0,0-4.13,3.68Z" fill="#d7dcf4"/>
        <path id="Path_43041" data-name="Path 43041" d="M746,1053.73c-5.66,0-9.46-3.15-9.77-7.26h6.42c.16,1.48,1.49,2.47,3.27,2.47s2.55-.76,2.55-1.71c0-3.42-11.55-1-11.55-8.74,0-3.61,3.08-6.57,8.62-6.57s8.51,3,8.93,7.22h-6c-.19-1.44-1.29-2.39-3.12-2.39-1.52,0-2.35.6-2.35,1.63,0,3.38,11.47,1,11.59,8.89C754.57,1051,751.3,1053.73,746,1053.73Z" fill="#d7dcf4"/>
        <path id="Path_43042" data-name="Path 43042" d="M403,1077.82l4.6,15.13,4.6-15.13h6.91L411.56,1099h-8L396,1077.82Z" fill="#d7dcf4"/>
        <path id="Path_43043" data-name="Path 43043" d="M431.25,1099.33c-6.24,0-10.72-4.18-10.72-10.91s4.41-10.9,10.72-10.9,10.56,4.1,10.56,10.56a15.511,15.511,0,0,1-.12,1.9H427c.23,2.78,1.94,4.07,4,4.07a3.45,3.45,0,0,0,3.38-2h6.91C440.29,1096.14,436.53,1099.33,431.25,1099.33Zm-4.22-13h8.13c0-2.31-1.83-3.64-4-3.64a4,4,0,0,0-4.16,3.68Z" fill="#d7dcf4"/>
        <path id="Path_43044" data-name="Path 43044" d="M451.73,1099h-6.5v-21.21h6.5v3.54a7.9,7.9,0,0,1,6.65-3.76v6.87h-1.79c-3.08,0-4.86,1.07-4.86,4.72Z" fill="#d7dcf4"/>
        <path id="Path_43045" data-name="Path 43045" d="M460.89,1072.13a3.87,3.87,0,1,1,3.87,3.49,3.59,3.59,0,0,1-3.87-3.49Zm.6,5.69H468V1099h-6.5Z" fill="#d7dcf4"/>
        <path id="Path_43046" data-name="Path 43046" d="M473.35,1083.22H471v-5.4h2.36v-.6c0-5.55,3.42-8.29,9.88-7.94v5.51c-2.51-.16-3.38.6-3.38,2.84v.19h3.49v5.4h-3.49V1099h-6.5Z" fill="#d7dcf4"/>
        <path id="Path_43047" data-name="Path 43047" d="M501,1077.82h7l-13.3,31.27h-7l4.87-10.79L484,1077.82h7.26l4.9,13.26Z" fill="#d7dcf4"/>
        <path id="Path_43048" data-name="Path 43048" d="M526.51,1077.52a7.35,7.35,0,0,1,6.53,3.31v-3h6.5V1099H533v-3a7.46,7.46,0,0,1-6.57,3.31c-5.17,0-9.31-4.26-9.31-10.94S521.3,1077.52,526.51,1077.52Zm1.9,5.66c-2.43,0-4.64,1.83-4.64,5.21s2.21,5.28,4.64,5.28,4.63-1.86,4.63-5.25-2.16-5.24-4.63-5.24Z" fill="#d7dcf4"/>
        <path id="Path_43049" data-name="Path 43049" d="M552.88,1099.33c-5.66,0-9.46-3.15-9.76-7.26h6.42c.15,1.48,1.48,2.47,3.27,2.47s2.54-.76,2.54-1.71c0-3.42-11.55-.95-11.55-8.74,0-3.61,3.08-6.57,8.63-6.57s8.51,3,8.92,7.22h-6c-.19-1.44-1.29-2.39-3.11-2.39-1.52,0-2.36.6-2.36,1.63,0,3.38,11.47,1,11.59,8.89C561.47,1096.56,558.2,1099.33,552.88,1099.33Z" fill="#d7dcf4"/>
        <path id="Path_43050" data-name="Path 43050" d="M582.86,1077.52c5.32,0,9.08,2.93,10.19,8h-6.92a3.34,3.34,0,0,0-3.38-2.43c-2.32,0-3.91,1.82-3.91,5.35s1.59,5.36,3.91,5.36a3.29,3.29,0,0,0,3.38-2.43h6.92a9.877,9.877,0,0,1-10.19,8c-6.23,0-10.64-4.18-10.64-10.91S576.63,1077.52,582.86,1077.52Z" fill="#d7dcf4"/>
        <path id="Path_43051" data-name="Path 43051" d="M606.16,1099.33c-6.23,0-10.95-4.18-10.95-10.91s4.83-10.9,11-10.9,11,4.18,11,10.9S612.39,1099.33,606.16,1099.33Zm0-5.62c2.32,0,4.48-1.71,4.48-5.29s-2.13-5.28-4.41-5.28-4.4,1.68-4.4,5.28S603.8,1093.71,606.16,1093.71Z" fill="#d7dcf4"/>
        <path id="Path_43052" data-name="Path 43052" d="M649.93,1087.51c0-2.77-1.6-4.29-4.06-4.29s-4.07,1.52-4.07,4.29V1099h-6.46v-11.52c0-2.77-1.59-4.29-4.06-4.29s-4.07,1.52-4.07,4.29V1099h-6.5v-21.21h6.5v2.66a7.47,7.47,0,0,1,6.19-2.88,7.91,7.91,0,0,1,7.22,4,8.54,8.54,0,0,1,7.14-4c5.25,0,8.63,3.34,8.63,9V1099h-6.46Z" fill="#d7dcf4"/>
        <path id="Path_43053" data-name="Path 43053" d="M674,1077.52c5.2,0,9.34,4.18,9.34,10.87s-4.14,10.94-9.34,10.94a7.62,7.62,0,0,1-6.54-3.27v13.07H661v-31.31h6.5v3A7.46,7.46,0,0,1,674,1077.52Zm-1.94,5.66c-2.43,0-4.64,1.86-4.64,5.24s2.21,5.25,4.64,5.25,4.67-1.9,4.67-5.28-2.21-5.21-4.68-5.21Z" fill="#d7dcf4"/>
        <path id="Path_43054" data-name="Path 43054" d="M686.76,1070.91h6.49V1099h-6.49Z" fill="#d7dcf4"/>
        <path id="Path_43055" data-name="Path 43055" d="M707.39,1099.33c-6.23,0-10.72-4.18-10.72-10.91s4.41-10.9,10.72-10.9,10.56,4.1,10.56,10.56a17.723,17.723,0,0,1-.11,1.9H703.13c.23,2.78,1.94,4.07,4,4.07a3.45,3.45,0,0,0,3.38-2h6.92C716.43,1096.14,712.67,1099.33,707.39,1099.33Zm-4.22-13h8.13c0-2.31-1.82-3.64-4-3.64a4,4,0,0,0-4.13,3.68Z" fill="#d7dcf4"/>
        <path id="Path_43056" data-name="Path 43056" d="M722.4,1083.22h-2.58v-5.4h2.58v-5.16h6.5v5.16h4.25v5.4H728.9v8.51c0,1.25.53,1.79,2,1.79h2.32V1099h-3.31c-4.4,0-7.48-1.87-7.48-7.38Z" fill="#d7dcf4"/>
        <path id="Path_43057" data-name="Path 43057" d="M746.22,1099.33c-6.23,0-10.71-4.18-10.71-10.91s4.41-10.9,10.71-10.9,10.57,4.1,10.57,10.56a15.523,15.523,0,0,1-.12,1.9H742c.23,2.78,1.94,4.07,4,4.07a3.45,3.45,0,0,0,3.38-2h6.91C755.27,1096.14,751.51,1099.33,746.22,1099.33Zm-4.21-13h8.13c0-2.31-1.83-3.64-4-3.64a4,4,0,0,0-4.14,3.68Z" fill="#d7dcf4"/>
        <path id="Path_43058" data-name="Path 43058" d="M763.25,1099.33a3.55,3.55,0,1,1,3.84-3.5,3.59,3.59,0,0,1-3.84,3.5Z" fill="#d7dcf4"/>
        <path id="Path_43059" data-name="Path 43059" d="M953.39,1392.81V1417a2.28,2.28,0,0,1-3.89,1.61l-24.2-24.21a2.28,2.28,0,0,1,0-3.22l24.2-24.2a2.28,2.28,0,0,1,3.89,1.61Z" fill="#c0c0f9"/>
        <path id="Path_43060" data-name="Path 43060" d="M832.16,1150.55h24.2a2.28,2.28,0,0,1,1.61,3.89l-24.2,24.2a2.28,2.28,0,0,1-3.22,0l-24.2-24.2a2.28,2.28,0,0,1,1.61-3.89Z" fill="#c0c0f9"/>
        <path id="Path_43061" data-name="Path 43061" d="M201.5,1149.88h24.2a2.28,2.28,0,0,1,1.62,3.89L203.11,1178a2.28,2.28,0,0,1-3.22,0l-24.2-24.2a2.28,2.28,0,0,1,1.61-3.89Z" fill="#c0c0f9"/>
        <path id="Path_43062" data-name="Path 43062" d="M578.33,665.43h24.21a2.28,2.28,0,0,1,1.61,3.89l-24.21,24.2a2.28,2.28,0,0,1-3.22,0l-24.2-24.2a2.28,2.28,0,0,1,1.61-3.89Z" fill="#c0c0f9"/>
      </g>
    </g>
  </g>
</svg>
