<?xml version="1.0" encoding="UTF-8"?><svg id="Layer_2" xmlns="http://www.w3.org/2000/svg" xmlns:xlink="http://www.w3.org/1999/xlink" viewBox="0 0 764.26 403.83"><defs><style>.cls-1{fill:#2828ad;stroke:#c7c7e5;stroke-miterlimit:10;stroke-width:6px;}.cls-2{fill:#d3d4dd;}.cls-3{fill:#3434e9;}.cls-4{fill:#8694e0;}.cls-5{fill:#d9d3e0;}</style><symbol id="Money_Symbol" viewBox="0 0 660.27 320.66"><g><path class="cls-3" d="m0,273.66V47.54C0,21.58,21.04.54,47,.54h566.27c25.96,0,47,21.04,47,47v226.13c0,25.96-21.04,47-47,47H47c-25.96,0-47-21.04-47-47Z"/><rect class="cls-4" x="19.69" y="19.69" width="624.77" height="281.66" rx="12" ry="12"/><ellipse class="cls-1" cx="332.07" cy="160.6" rx="103.04" ry="125.88"/><path class="cls-5" d="m393.2,149.16c.03-7.35-5.33-13.76-12.13-15.46-1.07-.27-1.41-.7-1.4-1.78.04-6.86.03-13.73.02-20.59,0-1.4.06-2.82-.1-4.21-1.27-10.75-5.68-19.91-13.99-27.01-7.23-6.17-15.62-9.37-25.14-9.43-8.42-.05-15.15-.32-19.63,0-2.34.17-3.51.26-4.72.46-6.47,1.1-11.32,3.96-14.35,6.15-3.12,2.02-5.85,4.48-8.22,7.35-6,7.26-9.38,15.57-9.52,25.03-.12,7.46-.03,14.93-.02,22.4,0,.76,0,1.43-.98,1.61-2.15.39-3.98,1.5-5.68,2.78-3.89,2.94-6.31,6.81-6.32,11.75-.07,24.25-.05,48.49-.02,72.74,0,4.67,2.14,8.41,5.63,11.39,3.24,2.77,7.09,3.79,11.27,3.79,14.73,0,29.46,0,44.19,0s29.06,0,43.59,0c1.04,0,2.09-.05,3.12-.15,8.22-.79,14.39-7.55,14.39-15.79,0-23.68-.06-47.37.04-71.05Zm-47.65,32.89c-1.39,1.79-3.15,3.22-5.2,4.2-.92.44-1.19,1-1.19,1.95.03,5.25.02,10.51.02,15.76,0,2.97-.99,4.74-3.42,5.41-2.95.82-5.39.39-7.19-1.65-.9-1.02-1.06-2.3-1.1-3.61,0-.08,0-.16,0-.24v-7.58c0-2.45-.08-4.9.03-7.34.06-1.39-.39-2.12-1.68-2.75-8.11-3.94-11.12-14.08-6.35-21.74,6.2-9.94,20.26-9.72,26.44-1.05,4.23,5.94,4.12,12.88-.35,18.63Zm20.75-50.52c0,1.47-.09,1.57-1.58,1.57-10.96,0-21.91,0-32.87,0-10.84,0-21.67,0-32.51,0-1.84,0-1.84,0-1.85-1.78,0-6.86.06-13.73-.01-20.59-.11-10.63,6.56-20.94,17.34-24.98,2.95-1.11,6.05-1.43,9.22-1.39,5.22.07,10.43.11,15.65-.01,6.53-.15,12.21,1.97,17.16,6.12,4.11,3.45,6.74,7.9,8.35,12.99.88,2.79,1.04,5.69,1.07,8.57.07,6.5.03,13,.02,19.51Z"/><g><circle class="cls-3" cx="56.64" cy="56.64" r="56.64"/><path class="cls-2" d="m56.64,93.1c-20.1,0-36.46-16.36-36.46-36.46S36.53,20.18,56.64,20.18s36.46,16.36,36.46,36.46-16.36,36.46-36.46,36.46Z"/><circle class="cls-3" cx="56.64" cy="263.49" r="56.64"/><path class="cls-2" d="m56.64,299.95c-20.1,0-36.46-16.36-36.46-36.46s16.36-36.46,36.46-36.46,36.46,16.36,36.46,36.46-16.36,36.46-36.46,36.46Z"/><circle class="cls-3" cx="603.63" cy="57.17" r="56.64"/><path class="cls-2" d="m603.63,93.63c-20.1,0-36.46-16.36-36.46-36.46s16.36-36.46,36.46-36.46,36.46,16.36,36.46,36.46-16.36,36.46-36.46,36.46Z"/><circle class="cls-3" cx="603.63" cy="264.02" r="56.64"/><path class="cls-2" d="m603.63,300.48c-20.1,0-36.46-16.36-36.46-36.46s16.36-36.46,36.46-36.46,36.46,16.36,36.46,36.46-16.36,36.46-36.46,36.46Z"/></g><path class="cls-3" d="m54.61,76.32c-6.42-.55-11-3.98-11.15-9.95h7.46c.2,2.29,1.39,3.83,3.68,4.33v-9.5c-5.13-1.29-11.15-2.74-11.15-10.1,0-5.87,4.68-9.7,11.15-10.2v-4.03h3.18v4.03c6.22.5,10.4,3.83,10.85,9.75h-7.51c-.2-1.94-1.39-3.43-3.33-4.03v9.4c5.18,1.34,11.25,2.69,11.25,10.05,0,5.08-3.98,9.8-11.25,10.3v4.03h-3.18v-4.08Zm0-21.25v-8.61c-2.29.35-3.88,1.74-3.88,4.28,0,2.34,1.59,3.53,3.88,4.33Zm3.18,7.02v8.71c2.54-.45,4.03-2.19,4.03-4.43s-1.69-3.48-4.03-4.28Z"/><path class="cls-3" d="m54.61,280.26c-6.42-.55-11-3.98-11.15-9.95h7.46c.2,2.29,1.39,3.83,3.68,4.33v-9.5c-5.13-1.29-11.15-2.74-11.15-10.1,0-5.87,4.68-9.7,11.15-10.2v-4.03h3.18v4.03c6.22.5,10.4,3.83,10.85,9.75h-7.51c-.2-1.94-1.39-3.43-3.33-4.03v9.4c5.18,1.34,11.25,2.69,11.25,10.05,0,5.08-3.98,9.8-11.25,10.3v4.03h-3.18v-4.08Zm0-21.25v-8.61c-2.29.35-3.88,1.74-3.88,4.28,0,2.34,1.59,3.53,3.88,4.33Zm3.18,7.02v8.71c2.54-.45,4.03-2.19,4.03-4.43s-1.69-3.48-4.03-4.28Z"/><path class="cls-3" d="m601.99,76.32c-6.42-.55-11-3.98-11.15-9.95h7.46c.2,2.29,1.39,3.83,3.68,4.33v-9.5c-5.13-1.29-11.15-2.74-11.15-10.1,0-5.87,4.68-9.7,11.15-10.2v-4.03h3.18v4.03c6.22.5,10.4,3.83,10.85,9.75h-7.51c-.2-1.94-1.39-3.43-3.33-4.03v9.4c5.18,1.34,11.25,2.69,11.25,10.05,0,5.08-3.98,9.8-11.25,10.3v4.03h-3.18v-4.08Zm0-21.25v-8.61c-2.29.35-3.88,1.74-3.88,4.28,0,2.34,1.59,3.53,3.88,4.33Zm3.18,7.02v8.71c2.54-.45,4.03-2.19,4.03-4.43s-1.69-3.48-4.03-4.28Z"/><path class="cls-3" d="m601.99,280.26c-6.42-.55-11-3.98-11.15-9.95h7.46c.2,2.29,1.39,3.83,3.68,4.33v-9.5c-5.13-1.29-11.15-2.74-11.15-10.1,0-5.87,4.68-9.7,11.15-10.2v-4.03h3.18v4.03c6.22.5,10.4,3.83,10.85,9.75h-7.51c-.2-1.94-1.39-3.43-3.33-4.03v9.4c5.18,1.34,11.25,2.69,11.25,10.05,0,5.08-3.98,9.8-11.25,10.3v4.03h-3.18v-4.08Zm0-21.25v-8.61c-2.29.35-3.88,1.74-3.88,4.28,0,2.34,1.59,3.53,3.88,4.33Zm3.18,7.02v8.71c2.54-.45,4.03-2.19,4.03-4.43s-1.69-3.48-4.03-4.28Z"/></g></symbol></defs><g id="Design_Layer"><g id="Text"><g><use width="660.27" height="320.66" xlink:href="#Money_Symbol"/><use width="660.27" height="320.66" transform="translate(103.98 83.17)" xlink:href="#Money_Symbol"/></g></g></g></svg>