<?xml version="1.0" encoding="UTF-8"?><svg id="Layer_2" xmlns="http://www.w3.org/2000/svg" xmlns:xlink="http://www.w3.org/1999/xlink" viewBox="0 0 486.47 706.12"><defs><style>.cls-1{fill:#ede9f4;}.cls-2{filter:url(#drop-shadow-1);}.cls-3{fill:#d3d3f2;}.cls-4{filter:url(#drop-shadow-2);}.cls-5{fill:#7f7ff4;}.cls-6{fill:#3434e9;}.cls-7{fill:#d9d3e0;}</style><filter id="drop-shadow-1" filterUnits="userSpaceOnUse"><feOffset dx="0" dy="-5"/><feGaussianBlur result="blur" stdDeviation="6"/><feFlood flood-color="#000" flood-opacity=".75"/><feComposite in2="blur" operator="in"/><feComposite in="SourceGraphic"/></filter><filter id="drop-shadow-2" filterUnits="userSpaceOnUse"><feOffset dx="0" dy="-5"/><feGaussianBlur result="blur-2" stdDeviation="6"/><feFlood flood-color="#000" flood-opacity=".75"/><feComposite in2="blur-2" operator="in"/><feComposite in="SourceGraphic"/></filter></defs><g id="Design_Layer"><g id="Text"><g><rect class="cls-7" x="36.28" y="316.13" width="413.91" height="286.12" rx="35.66" ry="35.66"/><rect class="cls-5" x="18.65" y="341.87" width="454.37" height="314.09" rx="35.66" ry="35.66"/><g><rect class="cls-1" y="369.84" width="486.47" height="336.28" rx="35.66" ry="35.66"/><g id="LIst"><rect class="cls-6" x="43.02" y="437.28" width="405.62" height="14.68"/><rect class="cls-6" x="43.02" y="536.98" width="405.62" height="14.68"/><rect class="cls-6" x="43.02" y="641.28" width="405.62" height="14.68"/></g></g><g class="cls-2"><path class="cls-5" d="m405.91,159.43c41.28-21.97,56.93-73.25,34.96-114.53-21.97-41.28-73.25-56.93-114.53-34.96-41.28,21.97-56.93,73.25-34.96,114.53,1.18,2.21,2.44,4.34,3.78,6.4-6.51,15.03-13.03,30.06-19.54,45.1,16.63-5.66,33.25-11.33,49.88-16.99,24.17,13.19,54.29,14.35,80.41.45Z"/><path class="cls-3" d="m327.96,117.88c-12.2-2.68-20.12-10.44-18.9-21.95l14.34,1.89c-.2,4.45,1.71,7.72,5.98,9.25l2.41-18.27c-9.52-3.79-20.73-8.09-18.86-22.24,1.49-11.28,11.45-17.46,24.01-16.78l1.02-7.75,6.12.81-1.02,7.75c11.83,2.53,19.01,10,18.37,21.5l-14.44-1.91c.11-3.78-1.81-6.95-5.38-8.59l-2.39,18.07c9.6,3.9,20.93,8.02,19.06,22.17-1.29,9.75-10.14,17.83-24.23,16.94l-1.02,7.75-6.12-.81,1.04-7.84Zm5.39-40.83l2.18-16.54c-4.49.09-7.9,2.36-8.54,7.24-.59,4.49,2.16,7.19,6.36,9.3Zm4.34,14.29l-2.21,16.74c4.99-.22,8.3-3.18,8.87-7.49.59-4.49-2.37-7.12-6.66-9.25Z"/><path class="cls-3" d="m383.97,125.28c-12.2-2.68-20.12-10.44-18.9-21.95l14.34,1.89c-.2,4.45,1.71,7.72,5.98,9.25l2.41-18.27c-9.52-3.79-20.73-8.09-18.86-22.24,1.49-11.28,11.45-17.46,24.01-16.78l1.02-7.75,6.12.81-1.02,7.75c11.83,2.53,19.01,10,18.37,21.5l-14.44-1.91c.11-3.78-1.81-6.95-5.38-8.59l-2.39,18.07c9.6,3.9,20.93,8.02,19.06,22.17-1.29,9.75-10.14,17.83-24.23,16.94l-1.02,7.75-6.12-.81,1.04-7.84Zm5.39-40.83l2.18-16.54c-4.49.09-7.9,2.36-8.54,7.24-.59,4.49,2.16,7.19,6.36,9.3Zm4.34,14.29l-2.21,16.74c4.99-.22,8.3-3.18,8.87-7.49.59-4.49-2.37-7.12-6.66-9.25Z"/></g><g class="cls-4"><path class="cls-3" d="m247.17,110.2c-27.77-52.16-92.56-71.93-144.71-44.17-52.16,27.76-71.93,92.56-44.17,144.71,27.76,52.16,92.56,71.93,144.71,44.17,2.79-1.49,5.48-3.08,8.09-4.78,19.41,7.75,38.83,15.51,58.24,23.26-7.57-20.53-15.15-41.06-22.72-61.6,16.66-30.54,18.13-68.6.57-101.6Z"/><path class="cls-6" d="m112.26,211.22c-16.96.21-29.84-7.62-31.76-23.23l19.56-1.91c1.11,5.95,4.63,9.69,10.76,10.4l-2.43-24.91c-13.76-2.08-29.91-4.32-31.79-23.62-1.5-15.39,9.78-26.63,26.6-29.58l-1.03-10.56,8.35-.81,1.03,10.56c16.43-.29,28.23,7.38,30.92,22.79l-19.69,1.92c-1.02-5.03-4.53-8.64-9.77-9.71l2.4,24.65c13.91,2.2,30.16,4.17,32.04,23.47,1.3,13.3-7.93,26.71-26.84,29.87l1.03,10.56-8.35.81-1.04-10.69Zm-5.43-55.68l-2.2-22.56c-5.91,1.5-9.73,5.56-9.08,12.21.6,6.13,5.08,8.85,11.28,10.35Zm10.14,17.57l2.23,22.82c6.54-1.82,10-6.77,9.43-12.64-.6-6.13-5.32-8.7-11.66-10.18Z"/><path class="cls-6" d="m193.65,203.28c-16.96.21-29.84-7.62-31.76-23.23l19.56-1.91c1.11,5.95,4.63,9.69,10.76,10.4l-2.43-24.91c-13.76-2.08-29.91-4.32-31.79-23.62-1.5-15.39,9.78-26.63,26.6-29.58l-1.03-10.56,8.35-.81,1.03,10.56c16.43-.29,28.23,7.38,30.92,22.79l-19.69,1.92c-1.02-5.03-4.53-8.64-9.77-9.71l2.4,24.65c13.91,2.2,30.16,4.17,32.04,23.47,1.3,13.3-7.93,26.71-26.84,29.87l1.03,10.56-8.35.81-1.04-10.69Zm-5.43-55.68l-2.2-22.56c-5.91,1.5-9.73,5.56-9.08,12.21.6,6.13,5.08,8.85,11.28,10.35Zm10.14,17.57l2.23,22.82c6.54-1.82,10-6.77,9.43-12.64-.6-6.13-5.32-8.7-11.66-10.18Z"/></g></g></g></g></svg>