<?xml version="1.0" encoding="UTF-8"?><svg id="Layer_2" xmlns="http://www.w3.org/2000/svg" xmlns:xlink="http://www.w3.org/1999/xlink" viewBox="0 0 535 752"><defs><style>.cls-1{filter:url(#drop-shadow-4);}.cls-1,.cls-2,.cls-3{fill:#d3d3f2;}.cls-4{fill:#33f;}.cls-5{filter:url(#drop-shadow-2);}.cls-5,.cls-6,.cls-7{fill:#8491f7;}.cls-8{fill:none;stroke:#3434e9;stroke-miterlimit:10;stroke-width:4px;}.cls-3{filter:url(#drop-shadow-1);}.cls-7{filter:url(#drop-shadow-3);}</style><filter id="drop-shadow-1" filterUnits="userSpaceOnUse"><feOffset dx="0" dy="-5"/><feGaussianBlur result="blur" stdDeviation="6"/><feFlood flood-color="#000" flood-opacity=".75"/><feComposite in2="blur" operator="in"/><feComposite in="SourceGraphic"/></filter><filter id="drop-shadow-2" filterUnits="userSpaceOnUse"><feOffset dx="0" dy="-5"/><feGaussianBlur result="blur-2" stdDeviation="6"/><feFlood flood-color="#000" flood-opacity=".75"/><feComposite in2="blur-2" operator="in"/><feComposite in="SourceGraphic"/></filter><filter id="drop-shadow-3" filterUnits="userSpaceOnUse"><feOffset dx="0" dy="-5"/><feGaussianBlur result="blur-3" stdDeviation="6"/><feFlood flood-color="#000" flood-opacity=".75"/><feComposite in2="blur-3" operator="in"/><feComposite in="SourceGraphic"/></filter><filter id="drop-shadow-4" filterUnits="userSpaceOnUse"><feOffset dx="0" dy="-5"/><feGaussianBlur result="blur-4" stdDeviation="6"/><feFlood flood-color="#000" flood-opacity=".75"/><feComposite in2="blur-4" operator="in"/><feComposite in="SourceGraphic"/></filter></defs><g id="Design_Layer"><g id="Text"><g id="Bottom_Elements_Section_1"><g><rect class="cls-3" x="18.03" y="159.9" width="344.62" height="280.75" rx="12" ry="12"/><rect class="cls-5" x="171.6" y="23.11" width="344.62" height="280.75" rx="12" ry="12"/><rect class="cls-7" x="18.03" y="457.65" width="344.62" height="280.75" rx="12" ry="12"/><rect class="cls-1" x="171.6" y="320.85" width="344.62" height="280.75" rx="12" ry="12"/><circle class="cls-2" cx="228.63" cy="82.98" r="33.27"/><path class="cls-4" d="m227.55,104.56l-16.59-17.01c-1.99-2.55-2.96-5.81-2.72-9.17.23-3.17,1.56-6.12,3.66-8.08,4.49-4.18,11.11-2.92,14.49.87.59.67,1.1,1.42,1.51,2.27.43-.71.93-1.36,1.48-1.93,2.41-2.52,6.16-4.05,9.52-3.9,2.55.11,4.71,1.17,6.24,3.05,3.39,4.15,3.11,11.17-.64,15.99l-.06.07-16.89,17.84Z"/><circle class="cls-2" cx="83.89" cy="511.25" r="33.27"/><path class="cls-4" d="m83.59,531.43l-16.59-16.31c-1.99-2.45-2.96-5.57-2.72-8.79.23-3.04,1.56-5.87,3.66-7.75,4.49-4.01,11.11-2.8,14.49.84.59.64,1.1,1.37,1.51,2.17.43-.68.93-1.3,1.48-1.85,2.41-2.41,6.16-3.88,9.52-3.74,2.55.11,4.71,1.12,6.24,2.93,3.39,3.98,3.11,10.71-.64,15.33l-.06.07-16.89,17.11Z"/><circle class="cls-6" cx="81.19" cy="216.88" r="33.27"/><path class="cls-8" d="m80.89,237.06l-16.59-16.31c-1.99-2.45-2.96-5.57-2.72-8.79.23-3.04,1.56-5.87,3.66-7.75,4.49-4.01,11.11-2.8,14.49.84.59.64,1.1,1.37,1.51,2.17.43-.68.93-1.3,1.48-1.85,2.41-2.41,6.16-3.88,9.52-3.74,2.55.11,4.71,1.12,6.24,2.93,3.39,3.98,3.11,10.71-.64,15.33l-.06.07-16.89,17.11Z"/><circle class="cls-6" cx="227.85" cy="375.84" r="33.27"/><path class="cls-8" d="m227.55,396.03l-16.59-16.31c-1.99-2.45-2.96-5.57-2.72-8.79.23-3.04,1.56-5.87,3.66-7.75,4.49-4.01,11.11-2.8,14.49.84.59.64,1.1,1.37,1.51,2.17.43-.68.93-1.3,1.48-1.85,2.41-2.41,6.16-3.88,9.52-3.74,2.55.11,4.71,1.12,6.24,2.93,3.39,3.98,3.11,10.71-.64,15.33l-.06.07-16.89,17.11Z"/></g></g></g></g></svg>