<?xml version="1.0" encoding="UTF-8"?><svg id="Layer_2" xmlns="http://www.w3.org/2000/svg" xmlns:xlink="http://www.w3.org/1999/xlink" viewBox="0 0 555 602"><defs><style>.cls-1{fill:#7f7ff4;filter:url(#drop-shadow-1);opacity:.68;}.cls-2{fill:#d9d3e0;filter:url(#drop-shadow-2);}</style><filter id="drop-shadow-1" filterUnits="userSpaceOnUse"><feOffset dx="0" dy="-5"/><feGaussianBlur result="blur" stdDeviation="6"/><feFlood flood-color="#000" flood-opacity=".75"/><feComposite in2="blur" operator="in"/><feComposite in="SourceGraphic"/></filter><filter id="drop-shadow-2" filterUnits="userSpaceOnUse"><feOffset dx="0" dy="-5"/><feGaussianBlur result="blur-2" stdDeviation="6"/><feFlood flood-color="#000" flood-opacity=".75"/><feComposite in2="blur-2" operator="in"/><feComposite in="SourceGraphic"/></filter></defs><g id="Design_Layer"><g id="Text"><g id="Bottom_Elements_Section_1"><g><path class="cls-1" d="m532.92,80.87c4.28,4.33,4.2,11.31-.16,15.55-25.17,24.43-61.85,60.24-105.92,103.92-78.74,78.05-117.58,117.55-121.71,121.68-40.31,40.3-80.57,80.65-120.95,120.87-12.12,12.08-21.64,13.03-32.48,2.29-42.06-41.66-83.91-83.54-125.58-125.6-10.54-10.63-9.97-19.63.75-30.59,10.8-11.05,21.79-21.9,32.73-32.8,14.83-14.76,22.21-14.86,36.96-.22,20.61,20.48,41.35,40.83,61.51,61.74,6.86,7.13,11.67,6.95,17.85-.31,5.48-6.44,12.75-11.32,17.67-18.19,6.11-8.53,74.47-78.05,270.65-272.24,4.3-4.26,11.24-4.22,15.5.08,17.73,17.94,35.46,35.88,53.19,53.82Z"/><path class="cls-2" d="m344.52,540.95c-74.82-6.38-128.18-46.4-129.92-116h87c2.32,26.68,16.24,44.66,42.92,50.46v-110.78c-59.74-15.08-129.92-31.9-129.92-117.74,0-68.44,54.52-113.1,129.92-118.9v-46.98h37.12v46.98c72.5,5.8,121.22,44.66,126.44,113.68h-87.58c-2.32-22.62-16.24-40.02-38.86-46.98v109.62c60.32,15.66,131.08,31.32,131.08,117.16,0,59.16-46.4,114.26-131.08,120.06v46.98h-37.12v-47.56Zm0-247.65v-100.34c-26.68,4.06-45.24,20.3-45.24,49.88,0,27.26,18.56,41.18,45.24,50.46Zm37.12,81.78v101.5c29.58-5.22,46.98-25.52,46.98-51.62s-19.72-40.6-46.98-49.88Z"/></g></g></g></g></svg>