<?xml version="1.0" encoding="UTF-8"?><svg id="Layer_2" xmlns="http://www.w3.org/2000/svg" viewBox="0 0 504.52 648.96"><defs><style>.cls-1{fill:#fff;}.cls-2{opacity:.95;}.cls-3{opacity:.52;}.cls-3,.cls-4{fill:#5555f2;}.cls-5{fill:#7f7ff4;}.cls-5,.cls-4{opacity:.69;}</style></defs><g id="Design_Layer"><g id="Text"><g><g class="cls-2"><rect class="cls-1" width="504.52" height="648.96" rx="35.66" ry="35.66"/></g><path class="cls-5" d="m453.12,146.26H192.91c-5.36,0-9.74-4.38-9.74-9.74V60.38c0-5.36,4.38-9.74,9.74-9.74h260.21c5.36,0,9.74,4.38,9.74,9.74v76.14c5.89,8.48,11.79,16.97,17.68,25.45-9.14-5.24-18.28-10.47-27.42-15.71Z"/><path class="cls-4" d="m308.03,266.67H47.82c-11.4,5.08-22.79,10.17-34.19,15.25,8.15-8.33,16.3-16.66,24.45-24.99v-75.37c0-5.36,4.38-9.74,9.74-9.74h260.21c5.36,0,9.74,4.38,9.74,9.74v75.37c0,5.36-4.38,9.74-9.74,9.74Z"/><path class="cls-5" d="m457.42,460.07H197.21c-5.36,0-9.74-4.38-9.74-9.74v-152.5c0-5.36,4.38-9.74,9.74-9.74h260.21c5.36,0,9.74,4.38,9.74,9.74v152.5c5.56,8.96,11.12,17.92,16.68,26.88-8.81-5.71-17.61-11.43-26.42-17.14Z"/><path class="cls-3" d="m308.03,592.61H47.82c-7.65,3.94-15.3,7.88-22.95,11.82,4.4-7.19,8.81-14.37,13.21-21.56v-92.56c0-5.36,4.38-9.74,9.74-9.74h260.21c5.36,0,9.74,4.38,9.74,9.74v92.56c0,5.36-4.38,9.74-9.74,9.74Z"/></g></g></g></svg>