<svg id="Group_332" data-name="Group 332" xmlns="http://www.w3.org/2000/svg" width="120" height="26.28" viewBox="0 0 120 26.28">
  <g id="Group_331" data-name="Group 331" transform="translate(0 0)">
    <g id="Group_329" data-name="Group 329">
      <g id="Group_328" data-name="Group 328">
        <g id="Group_327" data-name="Group 327" transform="translate(0 0.003)">
          <path id="Path_30122" data-name="Path 30122" d="M288.563,447.23h-3.982a.846.846,0,0,0-.848.842v10.086a41.882,41.882,0,0,1-7.566.651c-.784,0-1.6-.024-2.409-.064a36.281,36.281,0,0,1-5.157-.587V448.072a.846.846,0,0,0-.848-.842h-3.982a.846.846,0,0,0-.849.842v24.582a.847.847,0,0,0,.849.845h3.982a.847.847,0,0,0,.848-.845v-8.736a44.958,44.958,0,0,0,5.157.493c.807.038,1.623.056,2.409.056a50.736,50.736,0,0,0,7.566-.549v8.736a.847.847,0,0,0,.848.845h3.982a.847.847,0,0,0,.849-.845V448.072A.846.846,0,0,0,288.563,447.23Z" transform="translate(-262.922 -447.23)" fill="#fff"/>
        </g>
        <path id="Path_30123" data-name="Path 30123" d="M656.711,447.221h-2.341c-.06,0-.115,0-.174,0h-1.468a.83.83,0,0,0-.43.122c-.013.008-.028.013-.041.022a1.083,1.083,0,0,0-.127.105.89.89,0,0,0-.182.267s0,0,0,0a.85.85,0,0,0-.038.129.818.818,0,0,0-.027.2v18.9c-.12.034-.279.068-.407.1l-.119.029-.245.06a30.772,30.772,0,0,1-6.25.673h-.01l-.378,0h-.319l-.376,0h-.011a30.771,30.771,0,0,1-6.25-.673l-.245-.06-.12-.029c-.126-.033-.285-.066-.406-.1v-18.9a.868.868,0,0,0-.026-.2.93.93,0,0,0-.039-.129s0,0,0,0a.879.879,0,0,0-.182-.267,1.047,1.047,0,0,0-.126-.105c-.014-.009-.028-.014-.042-.022a.83.83,0,0,0-.43-.122h-1.466c-.059,0-.115,0-.174,0h-2.342a.846.846,0,0,0-.848.842V469.5a1.282,1.282,0,0,0,.068.405c.245.745,1.161,1.444,2.654,2.027.285.112.589.22.916.322.088.03.182.059.28.088l.1.027c.176.052.357.1.542.15l.1.026q.284.072.581.14l.085.02c.112.026.224.05.339.073.158.033.321.063.484.093l.081.016a38.418,38.418,0,0,0,6.983.6h.059a38.422,38.422,0,0,0,6.983-.6l.081-.016c.162-.031.326-.06.483-.093.115-.024.227-.047.339-.073l.084-.02c.2-.045.392-.092.582-.14l.1-.026c.186-.049.367-.1.543-.15l.1-.027c.1-.029.191-.058.28-.088q.489-.154.916-.322c1.494-.583,2.41-1.282,2.654-2.027a1.292,1.292,0,0,0,.068-.405V448.063A.846.846,0,0,0,656.711,447.221Z" transform="translate(-537.559 -447.218)" fill="#fff"/>
        <path id="Path_30124" data-name="Path 30124" d="M411.524,447.221h-2.341c-.06,0-.115,0-.174,0h-1.468a.83.83,0,0,0-.43.122c-.014.008-.028.013-.041.022a1.045,1.045,0,0,0-.127.105.882.882,0,0,0-.183.267s0,0,0,0a.813.813,0,0,0-.038.129.826.826,0,0,0-.027.2v18.9c-.121.034-.279.068-.407.1l-.12.029-.245.06a30.775,30.775,0,0,1-6.25.673h-.01l-.378,0h-.319l-.377,0h-.011a30.769,30.769,0,0,1-6.25-.673l-.245-.06-.119-.029c-.126-.033-.285-.066-.406-.1v-18.9a.856.856,0,0,0-.026-.2.951.951,0,0,0-.039-.129s0,0,0,0a.883.883,0,0,0-.182-.267,1.058,1.058,0,0,0-.126-.105c-.014-.009-.028-.014-.042-.022a.828.828,0,0,0-.43-.122h-1.467c-.059,0-.115,0-.174,0H386.73a.846.846,0,0,0-.848.842V469.5a1.292,1.292,0,0,0,.068.405c.245.745,1.162,1.444,2.654,2.027.285.112.59.22.916.322.088.03.182.059.28.088l.1.027c.175.052.357.1.543.15l.1.026q.284.072.581.14l.085.02c.112.026.224.05.338.073.158.033.322.063.484.093l.081.016a38.421,38.421,0,0,0,6.983.6h.059a38.421,38.421,0,0,0,6.983-.6l.081-.016c.162-.031.326-.06.484-.093.115-.024.226-.047.339-.073l.084-.02c.2-.045.392-.092.582-.14l.1-.026c.186-.049.367-.1.543-.15l.1-.027c.1-.029.191-.058.28-.088.326-.1.63-.211.915-.322,1.494-.583,2.41-1.282,2.654-2.027a1.283,1.283,0,0,0,.068-.405V448.063A.846.846,0,0,0,411.524,447.221Z" transform="translate(-354.65 -447.218)" fill="#fff"/>
      </g>
    </g>
    <g id="Group_330" data-name="Group 330" transform="translate(62.27 0.003)">
      <path id="Path_30125" data-name="Path 30125" d="M534.593,459.5c-.006-.144-.01-.288-.02-.432,0-.081-.011-.161-.017-.24-.008-.135-.02-.27-.031-.4-.005-.08-.017-.156-.023-.232-.014-.135-.029-.273-.047-.408-.007-.067-.016-.135-.027-.2-.018-.146-.041-.293-.064-.436-.006-.053-.017-.109-.026-.161-.028-.159-.056-.318-.084-.476-.008-.035-.014-.073-.022-.108-.035-.177-.072-.353-.11-.526a.312.312,0,0,1-.01-.049c-.055-.229-.11-.458-.174-.681a16.961,16.961,0,0,0-.6-1.807l-4.959,5.069-9.215,9.423a.934.934,0,0,1-1.326.007l-3.5-3.581-3.712-3.8a.979.979,0,0,1,0-1.36l2.315-2.365a.923.923,0,0,1,.665-.283.571.571,0,0,1,.1.006.9.9,0,0,1,.568.279l1.491,1.52,2.739,2.8,11.9-12.161a7.18,7.18,0,0,0-1.361-.977.2.2,0,0,0-.043-.029c-.04-.024-.083-.041-.123-.062a.277.277,0,0,0-.04-.021c-.1-.053-.21-.1-.317-.144,0,0,0,0-.009,0-.022-.009-.045-.02-.065-.029-.118-.047-.236-.091-.353-.129l-.023-.009c-.127-.041-.252-.076-.376-.109-.031-.008-.064-.015-.094-.02-.095-.024-.188-.041-.282-.059-.043-.006-.086-.015-.129-.02-.086-.012-.174-.023-.266-.032l-.117-.012c-.127-.008-.256-.015-.382-.015H508.948a.836.836,0,0,0-.824.757v24.752a.844.844,0,0,0,.824.768H526.41c.126,0,.255-.009.382-.017l.117-.009c.092-.011.18-.021.266-.035.043-.006.086-.011.129-.02.094-.015.187-.036.282-.056.031-.006.064-.015.094-.021.124-.032.249-.068.376-.109l.023-.008c.117-.038.235-.081.353-.129a.516.516,0,0,1,.065-.029s.009,0,.013-.006c.106-.043.21-.09.313-.143l.04-.017.123-.062a.347.347,0,0,0,.043-.029,8.994,8.994,0,0,0,3.332-3.422c.018-.02.035-.041.05-.061a15.51,15.51,0,0,0,1.526-3.741c.064-.226.121-.452.174-.683a.269.269,0,0,1,.01-.05c.038-.173.075-.349.11-.525.008-.035.014-.074.022-.112.029-.155.057-.314.084-.473.008-.056.02-.108.026-.164.022-.144.046-.287.064-.434.011-.068.02-.135.027-.2.017-.135.032-.273.047-.409.006-.079.017-.155.023-.232.012-.134.023-.267.031-.4.007-.08.015-.158.017-.241.01-.143.014-.286.02-.433.006-.07.009-.141.011-.211.007-.214.009-.431.009-.651s0-.435-.009-.649C534.6,459.645,534.6,459.578,534.593,459.5Z" transform="translate(-508.124 -447.23)" fill="#fff"/>
    </g>
  </g>
</svg>
